<?xml version="1.0" standalone="no"?>
<!DOCTYPE svg PUBLIC "-//W3C//DTD SVG 20010904//EN"
 "http://www.w3.org/TR/2001/REC-SVG-20010904/DTD/svg10.dtd">
<svg version="1.0" xmlns="http://www.w3.org/2000/svg"
 width="512.000000pt" height="512.000000pt" viewBox="0 0 512.000000 512.000000"
 preserveAspectRatio="xMidYMid meet">
<metadata>
Created by potrace 1.14, written by Peter Selinger 2001-2017
</metadata>
<g transform="translate(0.000000,512.000000) scale(0.100000,-0.100000)"
fill="#000000" stroke="none">
<path d="M2010 5107 c-46 -23 -38 -57 30 -127 33 -34 59 -64 58 -65 -2 -2 -45
-6 -97 -9 -108 -7 -221 -34 -341 -80 -47 -18 -106 -41 -132 -50 -169 -62 -267
-268 -203 -428 15 -38 15 -39 -26 -126 -41 -85 -82 -187 -100 -247 -40 -130
-82 -316 -95 -426 -5 -43 -3 -49 20 -64 14 -10 35 -15 46 -12 26 7 32 -5 36
-67 3 -62 13 -152 19 -186 3 -14 7 -41 10 -60 11 -82 34 -197 56 -275 26 -92
80 -254 95 -283 9 -19 7 -40 -12 -115 -12 -51 -25 -103 -27 -117 -28 -151 -33
-184 -43 -263 -3 -31 -11 -60 -16 -63 -5 -3 -27 -7 -48 -9 -134 -11 -259 -63
-336 -140 -138 -137 -172 -342 -109 -657 15 -76 72 -267 96 -323 7 -16 13 -32
14 -35 1 -3 9 -23 19 -45 9 -22 37 -87 61 -145 24 -58 57 -135 74 -172 37 -83
40 -100 21 -103 -8 -2 -31 -5 -50 -8 -160 -26 -261 -127 -262 -261 -1 -79 8
-118 29 -133 13 -10 165 -13 684 -13 366 0 681 3 698 6 17 4 48 23 68 44 l37
37 80 -19 c105 -25 273 -26 381 -3 44 9 83 19 87 21 3 2 16 -9 27 -25 45 -62
36 -62 786 -59 l680 3 13 28 c7 15 14 55 16 90 5 144 -88 248 -250 278 -32 6
-64 12 -71 14 -12 4 8 60 60 176 192 426 262 676 261 929 -1 156 -42 275 -125
365 l-40 43 24 18 c67 54 199 270 257 419 32 84 75 249 85 325 3 25 8 56 10
70 2 14 6 69 10 122 l6 97 66 67 c139 142 172 310 97 495 -39 95 -89 166 -183
260 -124 123 -230 169 -275 120 -14 -15 -18 -35 -16 -78 6 -176 2 -193 -107
-409 -78 -155 -86 -176 -86 -230 -1 -111 65 -204 176 -247 52 -20 57 -24 52
-47 -3 -14 -7 -34 -9 -45 -22 -107 -71 -256 -113 -340 -61 -122 -173 -265
-264 -340 -43 -35 -99 -76 -100 -73 -1 5 -8 46 -24 138 -16 92 -21 120 -31
162 -3 15 -5 29 -5 30 0 2 -6 25 -14 52 -17 55 -19 107 -6 122 27 28 129 403
147 539 3 28 8 59 10 70 2 11 7 52 10 90 4 39 8 81 9 95 2 14 3 35 4 46 1 18
7 21 31 19 16 -1 39 4 50 12 19 14 21 22 16 67 -23 191 -97 453 -182 639 l-53
118 16 42 c19 53 19 159 -1 215 -34 94 -103 166 -194 202 -209 83 -270 103
-377 125 -16 3 -81 9 -143 12 l-112 6 34 33 c46 44 52 68 27 93 -22 22 -42 24
-161 22 -68 -2 -191 -31 -242 -57 -29 -15 -33 -14 -89 16 -62 33 -145 64 -219
82 -68 16 -281 19 -310 5z"/>
</g>
</svg>
