<svg width="0" height="0" class="hidden">
    <symbol fill="" xmlns="http://www.w3.org/2000/svg" viewBox="0 0 30 23" id="credit-card">
        <path
            d="M25.982 23H4.018C1.803 23 0 21.205 0 19V4c0-2.206 1.803-4 4.02-4h21.96C28.197 0 30 1.794 30 4v15c0 2.205-1.803 4-4.018 4ZM4.018 1.143A2.866 2.866 0 0 0 1.15 4v15a2.867 2.867 0 0 0 2.87 2.857h21.962A2.867 2.867 0 0 0 28.85 19V4a2.867 2.867 0 0 0-2.87-2.857H4.019ZM20.704 3.36a2.588 2.588 0 0 1 2.594 2.582 2.588 2.588 0 0 1-2.594 2.582 2.588 2.588 0 0 1-2.594-2.582 2.588 2.588 0 0 1 2.594-2.582Zm3.616 0a2.588 2.588 0 0 1 2.595 2.582 2.588 2.588 0 0 1-2.595 2.582 2.588 2.588 0 0 1-2.594-2.582A2.588 2.588 0 0 1 24.32 3.36ZM3.086 16.334h4.782v1.714H3.086v-1.714Zm6.349 0h4.782v1.714H9.435v-1.714Zm6.347 0h4.784v1.714h-4.784v-1.714Zm6.349 0h4.783v1.714H22.13v-1.714ZM3.085 3.36h9.04v1.715h-9.04V3.36Zm0 3.402H7.87v1.714H3.086V6.762Z"
            fill=""></path>
    </symbol>
    <symbol fill="" xmlns="http://www.w3.org/2000/svg" viewBox="0 0 60 60" id="icon-shampoos">
        <path
            d="M37.13 17.181V11.74c0-.72-.584-1.304-1.304-1.304h-.978v-9.13C34.848.583 34.264 0 33.543 0h-8.478c-.72 0-1.304.584-1.304 1.304v9.13h-.979c-.72 0-1.304.585-1.304 1.305v5.442c-4.58 1.827-7.826 6.307-7.826 11.531v29.984c0 .72.584 1.304 1.304 1.304h28.696c.72 0 1.304-.584 1.304-1.304V28.712c0-5.224-3.245-9.704-7.826-11.53ZM26.37 2.61h5.869v7.826h-5.87V2.609Zm-2.283 10.434H34.52v3.261H24.087v-3.26Zm18.26 44.348H16.262V28.712c0-5.403 4.396-9.799 9.799-9.799h6.489c5.403 0 9.799 4.396 9.799 9.8V57.39Z"
            fill=""></path>
        <path
            d="M37.782 27.391H20.826c-.72 0-1.304.584-1.304 1.305v24.13c0 .72.584 1.304 1.304 1.304h16.956c.72 0 1.305-.584 1.305-1.304v-8.197a1.304 1.304 0 0 0-2.609 0v6.893H22.13V30h14.348v4.129a1.304 1.304 0 1 0 2.609 0v-5.433c0-.72-.584-1.305-1.305-1.305Z"
            fill=""></path>
        <path
            d="M37.782 38.065c-.72 0-1.304.583-1.304 1.304v.13a1.304 1.304 0 0 0 2.609 0v-.13c0-.72-.584-1.304-1.305-1.304ZM27.992 41.151a3.917 3.917 0 0 0-3.913 3.913 3.917 3.917 0 0 0 3.913 3.913 3.917 3.917 0 0 0 3.913-3.913 3.917 3.917 0 0 0-3.913-3.913Zm0 5.218a1.306 1.306 0 0 1 0-2.609c.72 0 1.305.585 1.305 1.304 0 .72-.585 1.305-1.305 1.305ZM34.846 35.984a3.917 3.917 0 0 0-3.913-3.913 3.917 3.917 0 0 0-3.913 3.913 3.917 3.917 0 0 0 3.913 3.913 3.917 3.917 0 0 0 3.913-3.913Zm-3.913 1.305a1.306 1.306 0 0 1 0-2.609c.719 0 1.304.585 1.304 1.304 0 .72-.585 1.305-1.305 1.305Z"
            fill=""></path>
    </symbol>
    <symbol fill="" xmlns="http://www.w3.org/2000/svg" viewBox="0 0 14 6" id="arrow-next">
        <path d="M0 4V2h11V0l3 3-3 3V4H0Z" fill=""></path>
    </symbol>
    <symbol fill="" xmlns="http://www.w3.org/2000/svg" viewBox="0 0 14 6" id="arrow-prev">
        <path d="M14 2v2H3v2L0 3l3-3v2h11Z" fill=""></path>
    </symbol>
    <symbol fill="" xmlns="http://www.w3.org/2000/svg" viewBox="0 0 60 60" id="icon-pet-food">
        <path
            d="m52.898 25.498-5.755-15.75v-8.32C47.143.64 46.503 0 45.714 0H14.286c-.79 0-1.429.64-1.429 1.429v8.318l-5.755 15.75a16.918 16.918 0 0 0-1.03 5.825v23.755A4.93 4.93 0 0 0 10.994 60h38.01a4.929 4.929 0 0 0 4.923-4.923V31.322c0-1.993-.346-3.953-1.03-5.824ZM15.714 2.858h28.572V8.57H15.714V2.857Zm35.358 47.274H30.907a1.429 1.429 0 0 0 0 2.857H51.07v2.087c0 1.14-.926 2.067-2.066 2.067h-38.01a2.069 2.069 0 0 1-2.066-2.067V31.322c-.001-1.652.289-3.292.857-4.844l5.499-15.05h29.43l5.5 15.05c.567 1.552.857 3.191.856 4.844v18.81Z"
            fill=""></path>
        <path
            d="M35.617 33.805a6.153 6.153 0 0 0-6.066-5.173 6.153 6.153 0 0 0-6.067 5.173 6.176 6.176 0 0 0-3.794 6.16c.227 2.999 2.66 5.427 5.659 5.65a6.141 6.141 0 0 0 3.326-.69 1.852 1.852 0 0 1 1.75.001 6.132 6.132 0 0 0 3.327.689c2.998-.223 5.431-2.651 5.659-5.649a6.176 6.176 0 0 0-3.794-6.161Zm.945 5.944a3.294 3.294 0 0 1-3.022 3.017 3.281 3.281 0 0 1-1.781-.367 4.73 4.73 0 0 0-4.416 0 3.283 3.283 0 0 1-1.782.367 3.294 3.294 0 0 1-3.022-3.017 3.3 3.3 0 0 1 2.594-3.474 1.428 1.428 0 0 0 1.134-1.428l-.002-.072a3.29 3.29 0 0 1 3.285-3.286 3.288 3.288 0 0 1 3.286 3.28l-.002.078a1.428 1.428 0 0 0 1.134 1.428 3.3 3.3 0 0 1 2.594 3.474ZM29.55 25.775a4.648 4.648 0 0 0 4.643-4.643 4.648 4.648 0 0 0-4.642-4.643 4.648 4.648 0 0 0-4.643 4.643 4.648 4.648 0 0 0 4.643 4.643Zm0-6.428c.985 0 1.786.8 1.786 1.785 0 .985-.8 1.786-1.785 1.786a1.788 1.788 0 0 1-1.786-1.786c0-.985.801-1.786 1.786-1.786ZM24.194 26.656a4.648 4.648 0 0 0-4.643-4.643 4.648 4.648 0 0 0-4.643 4.643A4.648 4.648 0 0 0 19.55 31.3a4.648 4.648 0 0 0 4.643-4.643Zm-4.643 1.786a1.788 1.788 0 0 1-1.786-1.786c0-.985.8-1.786 1.786-1.786.984 0 1.785.801 1.785 1.786s-.8 1.786-1.785 1.786ZM39.55 22.013a4.648 4.648 0 0 0-4.642 4.643 4.648 4.648 0 0 0 4.643 4.643 4.648 4.648 0 0 0 4.642-4.643 4.648 4.648 0 0 0-4.642-4.643Zm0 6.429a1.788 1.788 0 0 1-1.785-1.786c0-.985.8-1.786 1.786-1.786.984 0 1.785.801 1.785 1.786s-.8 1.786-1.785 1.786ZM24.693 50.132h-.347a1.429 1.429 0 0 0 0 2.857h.347a1.429 1.429 0 0 0 0-2.857Z"
            fill=""></path>
    </symbol>
    <symbol fill="" xmlns="http://www.w3.org/2000/svg" viewBox="0 0 61 60" id="icon-transportation">
        <path
            d="M56.004 12.711h-7.023v-.202a6.596 6.596 0 0 0-6.588-6.588 6.596 6.596 0 0 0-6.588 6.588v.202h-8.248a4.93 4.93 0 0 0-4.925 4.926V23.2h-7.386a4.288 4.288 0 0 0-4.017 2.761L6.97 38.869a2.35 2.35 0 0 1-.15.08c-.244.122-.7.308-1.484.5A5.7 5.7 0 0 0 .977 45V51.1a3.707 3.707 0 0 0 3.703 3.703h5.224C10.455 57.756 13.05 60 16.164 60c3.11 0 5.707-2.244 6.259-5.198h18.424C41.4 57.756 43.995 60 47.107 60c3.111 0 5.707-2.243 6.259-5.197h3.318c2.54 0 4.245-1.707 4.245-4.246V20.08c0-6.65-3.444-7.368-4.925-7.368ZM38.15 12.51a4.25 4.25 0 0 1 4.244-4.244 4.25 4.25 0 0 1 4.245 4.244v.202h-8.49v-.202ZM13.44 26.738a1.953 1.953 0 0 1 1.805-1.193h7.386v13.282H9.45l3.991-12.09Zm2.722 30.918a4.03 4.03 0 0 1-4.025-4.025l.002-.082c0-.042 0-.084.003-.126l.002-.02a4.03 4.03 0 0 1 4.018-3.798 4.032 4.032 0 0 1 3.942 3.208l.002.007c.012.062.024.124.033.188l.002.01.018.138.008.063.008.11c.002.031.006.063.007.094.002.033.002.067.003.1 0 .036.003.071.003.108a4.03 4.03 0 0 1-4.026 4.025Zm30.944 0a4.03 4.03 0 0 1-4.022-4.182l.001-.05c.002-.039.006-.077.01-.115l.006-.09.005-.037c.013-.122.032-.243.056-.362l.002-.01a4.032 4.032 0 0 1 3.942-3.205 4.031 4.031 0 0 1 4.025 4.026 4.03 4.03 0 0 1-4.025 4.025Zm9.577-5.197h-3.316c-.004-.021-.01-.042-.013-.062a6.95 6.95 0 0 0-.146-.588l-.033-.11a6.235 6.235 0 0 0-.062-.182l-.035-.098a6.2 6.2 0 0 0-.082-.208l-.026-.066a6.49 6.49 0 0 0-.123-.27l-.017-.033a6.503 6.503 0 0 0-.116-.227l-.046-.082a6.252 6.252 0 0 0-.1-.172l-.056-.092a5.754 5.754 0 0 0-.336-.487 6.54 6.54 0 0 0-.113-.143l-.068-.085a6.36 6.36 0 0 0-.128-.147l-.064-.072a6.239 6.239 0 0 0-.164-.173l-.036-.037a6.31 6.31 0 0 0-.212-.202l-.047-.041c-.056-.05-.113-.1-.172-.15-.025-.02-.052-.04-.078-.062-.049-.04-.099-.079-.15-.117l-.09-.067a6.144 6.144 0 0 0-.648-.416c-.033-.018-.065-.037-.098-.054a6.335 6.335 0 0 0-.174-.09c-.03-.014-.058-.03-.087-.043a6.526 6.526 0 0 0-.232-.105l-.036-.016a6.29 6.29 0 0 0-.274-.109l-.08-.028a6.818 6.818 0 0 0-.2-.068l-.107-.031a6.371 6.371 0 0 0-.18-.051l-.116-.03a6.171 6.171 0 0 0-.474-.097l-.123-.02a6.417 6.417 0 0 0-.185-.023c-.04-.004-.078-.01-.118-.013a6.458 6.458 0 0 0-.206-.016l-.1-.007a6.546 6.546 0 0 0-.62 0l-.101.007-.206.016-.118.013a6.572 6.572 0 0 0-.607.1 6.204 6.204 0 0 0-.47.12c-.036.011-.073.021-.108.033a6.19 6.19 0 0 0-.196.066l-.084.03c-.092.033-.184.07-.274.107l-.044.02c-.075.033-.15.066-.223.101l-.092.046a6.855 6.855 0 0 0-.169.087l-.102.056a6.755 6.755 0 0 0-.501.312 5.988 5.988 0 0 0-.14.1l-.096.07a6.435 6.435 0 0 0-.143.113l-.085.068a7.036 7.036 0 0 0-.16.139l-.059.051c-.07.065-.14.132-.209.2l-.05.052c-.05.052-.1.103-.15.157l-.072.081c-.04.045-.08.09-.119.137l-.074.092a6.34 6.34 0 0 0-.441.62l-.063.1a5.847 5.847 0 0 0-.091.16l-.053.094c-.036.067-.07.135-.104.203l-.03.057a6.332 6.332 0 0 0-.12.266l-.033.083a6.19 6.19 0 0 0-.075.19c-.014.036-.026.073-.038.109l-.059.171-.036.119a6.254 6.254 0 0 0-.145.585c-.003.02-.008.04-.012.059h-18.42l-.014-.061-.025-.12a6.233 6.233 0 0 0-.12-.466c-.011-.038-.022-.076-.035-.114a6.363 6.363 0 0 0-.06-.176l-.036-.105a5.884 5.884 0 0 0-.077-.194c-.01-.026-.02-.053-.032-.08a6.369 6.369 0 0 0-.12-.266l-.027-.052c-.035-.07-.07-.14-.107-.208l-.052-.092a5.988 5.988 0 0 0-.093-.162l-.062-.1a6.288 6.288 0 0 0-.44-.62l-.076-.091a6.997 6.997 0 0 0-.118-.137l-.073-.082a6.02 6.02 0 0 0-.148-.155c-.017-.018-.034-.037-.052-.054a6.308 6.308 0 0 0-.208-.199l-.06-.053a6.257 6.257 0 0 0-.159-.137l-.086-.07a6.107 6.107 0 0 0-.141-.11 6.842 6.842 0 0 0-.586-.395c-.05-.03-.1-.06-.151-.088l-.104-.057a5.85 5.85 0 0 0-.167-.086l-.093-.047a6.497 6.497 0 0 0-.22-.1l-.047-.02a6.336 6.336 0 0 0-.273-.108l-.086-.03a6.538 6.538 0 0 0-.194-.066l-.11-.033a6.377 6.377 0 0 0-.768-.177l-.123-.02a6.409 6.409 0 0 0-.185-.023c-.04-.004-.078-.01-.118-.013a6.733 6.733 0 0 0-.206-.016l-.1-.007a6.415 6.415 0 0 0-.62 0l-.101.007-.206.016-.118.013a6.375 6.375 0 0 0-.185.024l-.123.02a6.17 6.17 0 0 0-.472.096l-.12.03a6.189 6.189 0 0 0-.175.05l-.11.033c-.065.02-.129.043-.192.065l-.089.03c-.091.035-.182.07-.271.108l-.054.024a6.486 6.486 0 0 0-.213.097 6.266 6.266 0 0 0-.26.133 5.857 5.857 0 0 0-.743.467c-.034.024-.068.048-.1.073a6.425 6.425 0 0 0-.137.108c-.03.024-.061.048-.09.073-.052.042-.101.085-.15.13l-.07.06c-.07.064-.139.13-.206.197l-.061.063a6.775 6.775 0 0 0-.139.145l-.077.088a5.858 5.858 0 0 0-.114.13l-.078.098a5.853 5.853 0 0 0-.436.612l-.066.106c-.03.05-.059.102-.088.153l-.056.1a6.747 6.747 0 0 0-.098.192l-.035.068a6.436 6.436 0 0 0-.12.264l-.036.091c-.025.06-.05.121-.072.182l-.04.113c-.02.056-.039.111-.056.167l-.037.121a6.478 6.478 0 0 0-.118.458c-.01.042-.019.084-.027.127l-.012.057H4.68c-.75 0-1.36-.61-1.36-1.36V45a3.363 3.363 0 0 1 2.571-3.275c.668-.163 1.242-.349 1.71-.555h42.562a1.172 1.172 0 0 0 0-2.343H24.976v-21.19a2.584 2.584 0 0 1 2.581-2.582h28.447c2.246 0 2.582 3.148 2.582 5.025v30.477c0 1.655-1.192 1.902-1.902 1.902Z"
            fill=""></path>
        <path
            d="M51.437 24.815a3.238 3.238 0 0 0-2.522-3.154 3.496 3.496 0 0 0-.987-2.797 3.681 3.681 0 0 0-2.625-1.108 3.623 3.623 0 0 0-2.908 1.468 3.625 3.625 0 0 0-2.912-1.468c-.974 0-1.924.398-2.606 1.094a3.53 3.53 0 0 0-1.007 2.812 3.238 3.238 0 0 0-2.52 3.153c0 1.301.773 2.425 1.884 2.937a5.557 5.557 0 0 0-1.24 3.49c0 3.06 2.49 5.55 5.55 5.55a5.551 5.551 0 0 0 2.85-.787 5.55 5.55 0 0 0 2.848.788c3.06 0 5.55-2.49 5.55-5.55a5.556 5.556 0 0 0-1.24-3.491 3.236 3.236 0 0 0 1.885-2.937ZM45.303 20.1c.354 0 .699.145.945.398.228.235.349.538.34.853-.02.718-.602 1.31-1.298 1.317-.187 0-.37-.04-.54-.117l-.063-.03a1.277 1.277 0 0 1-.668-1.132c.003-.711.58-1.29 1.284-1.29Zm-6.753.391a1.296 1.296 0 0 1 .933-.392 1.287 1.287 0 0 1 1.185 1.79 1.29 1.29 0 0 1-.57.633l-.114.054a1.222 1.222 0 0 1-.482.092 1.34 1.34 0 0 1-1.304-1.307 1.203 1.203 0 0 1 .352-.87Zm-2.857 4.324a.89.89 0 0 1 1.778 0c0 .1-.018.197-.049.287a5.4 5.4 0 0 0-.084.179.889.889 0 0 1-1.645-.466Zm9.549 9.634a3.205 3.205 0 0 1-2.086-.772 1.169 1.169 0 0 0-1.526 0 3.205 3.205 0 0 1-5.292-2.434c0-1.34.845-2.551 2.103-3.012a1.172 1.172 0 0 0 .762-.982c.033-.322.115-.637.242-.935.041-.08.08-.16.116-.243a3.193 3.193 0 0 1 2.832-1.697 3.217 3.217 0 0 1 1.441.338c.594.297 1.08.772 1.392 1.359.035.083.074.164.116.243.127.298.208.613.241.936a1.171 1.171 0 0 0 .762.98 3.219 3.219 0 0 1 2.103 3.013 3.21 3.21 0 0 1-3.206 3.206Zm2.963-8.745a.889.889 0 0 1-.756-.423 5.602 5.602 0 0 0-.085-.179.887.887 0 0 1 .84-1.176.89.89 0 0 1 0 1.778ZM56.02 39.776a1.172 1.172 0 0 0-2.32.228 1.18 1.18 0 0 0 .722 1.082 1.15 1.15 0 0 0 1.1-.107 1.192 1.192 0 0 0 .43-.526 1.238 1.238 0 0 0 .09-.449 1.15 1.15 0 0 0-.023-.228ZM42.393 0c-.647 0-1.172.525-1.172 1.172v1.962a1.172 1.172 0 0 0 2.344 0V1.172C43.565.525 43.04 0 42.393 0ZM37.456 4.557 35.82 3.272a1.171 1.171 0 1 0-1.447 1.844L36.01 6.4a1.167 1.167 0 0 0 1.236.133 1.17 1.17 0 0 0 .211-1.976ZM50.611 3.47a1.172 1.172 0 0 0-1.645-.198L47.33 4.556A1.172 1.172 0 1 0 48.778 6.4l1.635-1.284c.51-.4.598-1.137.198-1.646Z"
            fill=""></path>
    </symbol>
    <symbol fill="" xmlns="http://www.w3.org/2000/svg" viewBox="0 0 60 60" id="icon-toys">
        <path
            d="M51.213 8.787C45.547 3.12 38.013 0 30 0 21.987 0 14.453 3.12 8.787 8.787 3.12 14.453 0 21.987 0 30c0 8.013 3.12 15.547 8.787 21.213C14.453 56.88 21.987 60 30 60c8.013 0 15.547-3.12 21.213-8.787C56.88 45.547 60 38.013 60 30c0-8.013-3.12-15.547-8.787-21.213ZM10.631 49.368C5.904 44.641 3.12 38.491 2.674 31.883c.716.025 1.448.093 2.188.203 5.303.787 10.64 3.637 15.027 8.025 4.388 4.387 7.238 9.724 8.025 15.027.108.72.175 1.447.201 2.175a27.276 27.276 0 0 1-17.484-7.945Zm20.095 8a21.916 21.916 0 0 0-.231-2.614c-.87-5.852-3.981-11.708-8.761-16.488-4.78-4.78-10.636-7.891-16.489-8.76-.87-.13-1.747-.208-2.627-.233a27.81 27.81 0 0 1 .19-2.605c.93.03 1.874.116 2.82.257 6.403.95 12.777 4.323 17.95 9.496s8.546 11.548 9.497 17.95a24.8 24.8 0 0 1 .256 2.805 27.53 27.53 0 0 1-2.605.192Zm18.642-8a27.23 27.23 0 0 1-13.443 7.367 27.58 27.58 0 0 0-.27-2.747c-1.032-6.952-4.666-13.846-10.232-19.411-5.565-5.566-12.459-9.2-19.41-10.233a27.522 27.522 0 0 0-2.758-.27l-.007.006c1.108-5.056 3.635-9.7 7.383-13.449a27.225 27.225 0 0 1 12.804-7.217 27.37 27.37 0 0 0 .287 3.22c1.033 6.952 4.667 13.846 10.233 19.411 5.565 5.566 12.459 9.2 19.41 10.233 1.07.16 2.15.255 3.23.287l.012-.02c-1.175 4.814-3.645 9.23-7.239 12.823Zm7.74-15.402c-1.102-.011-2.227-.1-3.359-.269-6.402-.95-12.777-4.324-17.95-9.496-5.172-5.173-8.545-11.548-9.496-17.95a24.536 24.536 0 0 1-.269-3.343c.866-.125 1.737-.21 2.611-.253a21.62 21.62 0 0 0 .238 3.213c.87 5.852 3.981 11.708 8.761 16.488a1.305 1.305 0 0 0 1.845-1.845c-4.387-4.387-7.237-9.723-8.025-15.027a19.016 19.016 0 0 1-.212-2.833c6.591.298 13.095 2.958 18.117 7.98 4.877 4.878 7.688 11.271 7.993 18.117a19.09 19.09 0 0 1-2.846-.212 1.305 1.305 0 0 0-.383 2.58c1.077.16 2.14.24 3.175.24h.05a27.701 27.701 0 0 1-.25 2.61Z"
            fill=""></path>
        <path
            d="M46.152 25.775a1.309 1.309 0 0 0-1.305 1.304 1.309 1.309 0 0 0 1.305 1.305c.343 0 .68-.14.922-.383.244-.245.38-.576.382-.922 0-.343-.14-.68-.382-.922a1.31 1.31 0 0 0-.922-.382Z"
            fill=""></path>
    </symbol>
    <symbol fill="" xmlns="http://www.w3.org/2000/svg" viewBox="0 0 60 60" id="icon-bowls-and-cups">
        <path
            d="m59.985 39.855-2.86-19.21c-.046-5.58-3.432-10.752-9.31-14.207C42.949 3.576 36.622 2 30 2S17.052 3.576 12.184 6.438c-5.877 3.455-9.263 8.628-9.31 14.206L.014 39.855c-.009.067-.014.134-.014.201 0 5.649 3.765 10.88 10.328 14.352 5.374 2.842 12.36 4.408 19.672 4.408 7.312 0 14.298-1.566 19.672-4.408C56.235 50.936 60 45.705 60 40.056c0-.067-.005-.134-.015-.2ZM13.567 8.79C18.02 6.17 23.857 4.729 30 4.729c6.142 0 11.978 1.442 16.433 4.06 5.063 2.977 7.966 7.34 7.966 11.97 0 4.632-2.903 8.994-7.966 11.97-4.455 2.62-10.29 4.062-16.433 4.062-6.142 0-11.979-1.442-16.433-4.061C8.504 29.754 5.6 25.39 5.6 20.76c0-4.63 2.903-8.994 7.966-11.97Zm34.829 43.206C43.408 54.634 36.875 56.087 30 56.087s-13.408-1.453-18.396-4.091c-5.6-2.963-8.83-7.274-8.875-11.843l1.879-12.619c1.564 2.927 4.145 5.53 7.576 7.548C17.052 37.943 23.38 39.52 30 39.52c6.621 0 12.949-1.577 17.816-4.438 3.431-2.017 6.012-4.621 7.576-7.548l1.879 12.62c-.046 4.568-3.275 8.88-8.875 11.842Z"
            fill=""></path>
        <path
            d="M30 34.062c9.353 0 17.608-3.62 20.54-9.005.75-1.377 1.13-2.823 1.13-4.297 0-3.692-2.35-7.108-6.62-9.618C41.01 8.766 35.664 7.458 30 7.458c-5.663 0-11.008 1.308-15.05 3.684-4.27 2.51-6.62 5.926-6.62 9.618 0 1.475.38 2.92 1.13 4.296 2.932 5.387 11.187 9.006 20.54 9.006Zm0-2.729c-7.845 0-14.972-2.818-17.744-6.932 2.773-4.112 9.9-6.928 17.744-6.928 7.843 0 14.971 2.816 17.745 6.928-2.772 4.114-9.9 6.932-17.745 6.932ZM11.058 20.76c0-2.686 1.873-5.266 5.275-7.266 3.629-2.133 8.482-3.307 13.667-3.307 5.184 0 10.038 1.174 13.667 3.308 3.402 2 5.275 4.58 5.275 7.265 0 .24-.016.478-.046.716-3.763-4.106-10.93-6.731-18.896-6.731-7.966 0-15.133 2.625-18.896 6.731a5.754 5.754 0 0 1-.046-.716ZM30 41.77a1.366 1.366 0 0 0-.987.422c-.889.931-3.788 4.145-3.788 6.4A4.78 4.78 0 0 0 30 53.367a4.78 4.78 0 0 0 4.775-4.775c0-2.255-2.9-5.468-3.788-6.4A1.367 1.367 0 0 0 30 41.77Zm0 8.868a2.049 2.049 0 0 1-2.046-2.046c0-.606.952-2.07 2.046-3.398 1.094 1.329 2.047 2.792 2.047 3.398A2.049 2.049 0 0 1 30 50.638Z"
            fill=""></path>
        <path
            d="M23.884 23.898h-.42a1.364 1.364 0 1 0 0 2.728h.42a1.364 1.364 0 1 0 0-2.728ZM40.074 23.898h-9.732a1.364 1.364 0 1 0 0 2.728h9.732a1.364 1.364 0 1 0 0-2.728Z"
            fill=""></path>
    </symbol>
    <symbol fill="" xmlns="http://www.w3.org/2000/svg" viewBox="0 0 60 60" id="icon-vitamins">
        <path
            d="M54.31 35.399c-3.274-1.115-7.605-1.729-12.194-1.729-.287 0-.573.002-.857.007-4.27.072-8.268.677-11.338 1.722-.493.166-.979.353-1.456.56V17.232C28.465 9.386 22.081 3 14.233 3 6.385 3 0 9.385 0 17.233v25.693C0 50.774 6.385 57.16 14.232 57.16c2.49 0 4.94-.653 7.087-1.887a14.31 14.31 0 0 0 3.598-2.946c.747 1.05 2.228 2.16 5.004 3.104 3.275 1.115 7.606 1.729 12.195 1.729s8.92-.614 12.195-1.729C59.013 53.83 60 51.757 60 50.3v-9.77c0-1.457-.987-3.53-5.69-5.13Zm-27.735 5.13c0-.043.005-.086.012-.13l.002-.01c.04-.213.167-.459.402-.725l.004-.005c.036-.04.075-.081.115-.122.027-.027.054-.055.083-.082l.034-.032a5.35 5.35 0 0 1 .706-.54l.013-.01c.641-.416 1.532-.848 2.73-1.256 3.038-1.034 7.1-1.603 11.44-1.603 3.953 0 7.674.474 10.603 1.34l-25.08 4.622c-.752-.555-1.062-1.068-1.064-1.444v-.002Zm-.454-3.239c-.903.693-1.407 1.396-1.662 2.048a3.304 3.304 0 0 0-.221 1l-.002.03a3.18 3.18 0 0 0-.005.162v8.83a11.808 11.808 0 0 1-9.999 5.455c-6.555 0-11.888-5.333-11.888-11.889V31.251h2.344v6.328a1.172 1.172 0 0 0 2.343 0v-6.328h19.09v6.04Zm0-8.383H7.031V17.233c0-3.971 3.23-7.202 7.202-7.202 3.97 0 7.2 3.23 7.2 7.202a1.172 1.172 0 0 0 2.345 0c0-5.264-4.282-9.546-9.545-9.546-5.264 0-9.546 4.282-9.546 9.546v11.674H2.345V17.233c0-6.556 5.333-11.89 11.889-11.89 6.555 0 11.888 5.334 11.888 11.89v11.674ZM57.656 50.3c0 .7-1.074 1.882-4.1 2.913-3.039 1.033-7.101 1.603-11.44 1.603-4.34 0-8.402-.57-11.44-1.603-3.027-1.03-4.1-2.213-4.1-2.913v-6.206c.82.546 1.908 1.08 3.345 1.568 3.275 1.115 7.606 1.729 12.195 1.729s8.92-.614 12.195-1.729c1.436-.489 2.525-1.022 3.345-1.568V50.3Zm-4.1-6.857c-3.039 1.034-7.101 1.604-11.44 1.604-4.01 0-7.783-.488-10.73-1.377l25.139-4.633c.803.574 1.131 1.108 1.131 1.494 0 .7-1.074 1.882-4.1 2.912Z"
            fill=""></path>
        <path
            d="M6.688 41.402a1.122 1.122 0 0 0-.381-.253 1.18 1.18 0 0 0-.676-.067 1.22 1.22 0 0 0-.422.175 1.118 1.118 0 0 0-.323.323 1.08 1.08 0 0 0-.108.203 1.146 1.146 0 0 0 0 .897 1.16 1.16 0 0 0 .253.38 1.185 1.185 0 0 0 .828.342 1.155 1.155 0 0 0 .65-.197 1.186 1.186 0 0 0 .324-.323 1.245 1.245 0 0 0 .176-.422 1.18 1.18 0 0 0-.321-1.058Z"
            fill=""></path>
    </symbol>
    <symbol fill="" xmlns="http://www.w3.org/2000/svg" viewBox="0 0 60 60" id="icon-medicines">
        <path
            d="M59.656 15.899 44.101.343a1.172 1.172 0 0 0-1.657 0l-4.143 4.142a1.172 1.172 0 0 0 0 1.658l4.921 4.92-4.658 4.66-7.172-7.171a1.172 1.172 0 0 0-1.657 0l-4.758 4.758a1.172 1.172 0 0 0 0 1.657l1.511 1.511L7.065 35.902a4.583 4.583 0 0 0 0 6.474l1.491 1.491-2.734 2.735a1.172 1.172 0 0 0 0 1.657l2.13 2.13L.344 58A1.172 1.172 0 0 0 2 59.656l7.61-7.61 2.131 2.132a1.172 1.172 0 0 0 1.657 0l2.735-2.735 1.49 1.492a4.548 4.548 0 0 0 3.238 1.34 4.548 4.548 0 0 0 3.237-1.34L43.52 33.512l1.511 1.51a1.168 1.168 0 0 0 1.658 0l4.758-4.757a1.172 1.172 0 0 0 0-1.658l-7.171-7.17 4.659-4.66 4.92 4.921a1.168 1.168 0 0 0 1.658 0l4.142-4.142c.458-.458.458-1.2 0-1.658Zm-34.92 5.647 5.422 5.422a1.168 1.168 0 0 0 .828.343 1.172 1.172 0 0 0 .829-2l-5.422-5.422 1.752-1.753 10.089 10.09-5.36 5.358-10.088-10.088 1.95-1.95ZM12.57 51.692 8.308 47.43l1.906-1.905 4.261 4.261-1.905 1.906Zm9.87-.415c-.87.871-2.288.871-3.159 0L8.722 40.72a2.237 2.237 0 0 1 0-3.16l1.67-1.669 2.885 2.886a1.168 1.168 0 0 0 1.658 0c.457-.458.457-1.2 0-1.658l-2.886-2.885 1.928-1.929 5.422 5.422a1.168 1.168 0 0 0 1.657 0c.458-.458.458-1.2 0-1.658l-5.422-5.421 1.93-1.929 2.885 2.886a1.168 1.168 0 0 0 1.657 0c.458-.458.458-1.2 0-1.658l-2.886-2.885 1.908-1.908 10.089 10.089-7.621 7.62a1.172 1.172 0 0 0 1.657 1.658l7.621-7.62 1.972 1.97L22.44 51.278Zm14.064-14.063-1.972-1.972 5.36-5.36 1.971 1.972-5.359 5.36Zm12.458-7.778-3.101 3.1L27.463 14.14l3.1-3.101 18.399 18.398Zm-6.343-9.657-2.398-2.399 4.659-4.659 2.398 2.399-4.658 4.659Zm12.066-.567L40.787 5.314l2.486-2.485L57.17 16.727l-2.486 2.485Z"
            fill=""></path>
        <path
            d="M22.316 46.72a1.156 1.156 0 0 0-.7-.853 1.18 1.18 0 0 0-.677-.066 1.18 1.18 0 0 0-.854.7 1.157 1.157 0 0 0 .253 1.276 1.157 1.157 0 0 0 .83.344 1.157 1.157 0 0 0 1.082-.723 1.144 1.144 0 0 0 .09-.449 1.15 1.15 0 0 0-.024-.228Z"
            fill=""></path>
    </symbol>
    <symbol fill="" xmlns="http://www.w3.org/2000/svg" viewBox="0 0 60 60" id="icon-collars-leashes">
        <path
            d="M57.297 10.251c-1.56-1.254-3.758-2.37-6.535-3.315C45.198 5.043 37.825 4 30 4 22.174 4 14.8 5.043 9.238 6.936c-2.778.945-4.976 2.06-6.535 3.315C.909 11.694 0 13.286 0 14.983v13.116c0 1.697.91 3.289 2.703 4.732 1.559 1.254 3.757 2.37 6.535 3.315 5.285 1.798 12.203 2.828 19.59 2.927v4.703h-4.041a5.121 5.121 0 0 0-5.024-4.16 5.119 5.119 0 0 0-5.113 5.112c0 1.226.435 2.387 1.204 3.297a5.097 5.097 0 0 0-1.204 3.296 5.119 5.119 0 0 0 5.113 5.113 5.122 5.122 0 0 0 5.024-4.16h10.426a5.121 5.121 0 0 0 5.024 4.16 5.119 5.119 0 0 0 5.113-5.113 5.097 5.097 0 0 0-1.204-3.296 5.097 5.097 0 0 0 1.204-3.297 5.119 5.119 0 0 0-5.113-5.112 5.121 5.121 0 0 0-5.024 4.16h-4.041v-4.703c7.387-.099 14.305-1.129 19.59-2.927 2.778-.946 4.976-2.06 6.535-3.315C59.091 31.388 60 29.796 60 28.099V14.983c0-1.697-.91-3.289-2.703-4.732ZM36.302 46.12a1.172 1.172 0 0 0 1.17-1.236 2.772 2.772 0 0 1 2.765-2.923 2.772 2.772 0 0 1 2.77 2.769c0 .935-.47 1.801-1.254 2.316a1.172 1.172 0 0 0 0 1.96 2.765 2.765 0 0 1 1.253 2.316 2.772 2.772 0 0 1-2.77 2.77 2.772 2.772 0 0 1-2.764-2.924 1.173 1.173 0 0 0-1.17-1.236H23.698a1.173 1.173 0 0 0-1.17 1.236 2.772 2.772 0 0 1-2.765 2.923 2.772 2.772 0 0 1-2.77-2.768c0-.936.469-1.802 1.254-2.317a1.171 1.171 0 0 0 0-1.96 2.764 2.764 0 0 1-1.254-2.316 2.772 2.772 0 0 1 2.77-2.77 2.772 2.772 0 0 1 2.764 2.924 1.171 1.171 0 0 0 1.17 1.236h12.605ZM30 36.74a2.826 2.826 0 0 1-2.823-2.823A2.826 2.826 0 0 1 30 31.093a2.826 2.826 0 0 1 2.822 2.823A2.826 2.826 0 0 1 30 36.738Zm27.656-8.64c0 3.708-9.352 7.8-23.26 8.526a5.135 5.135 0 0 0 .657-3.786c4.548-.299 8.773-.977 12.297-1.983a1.172 1.172 0 0 0-.644-2.254c-3.616 1.032-8.027 1.705-12.785 1.956a5.155 5.155 0 0 0-7.858.017c-3.224-.154-6.29-.498-9.113-1.03a1.172 1.172 0 0 0-.433 2.304c2.632.495 5.46.834 8.425 1.013a5.169 5.169 0 0 0 .661 3.763c-13.908-.726-23.26-4.818-23.26-8.526v-8.685l.017.013a11.158 11.158 0 0 0 .821.652l.003.002c.087.064.176.127.267.19l.04.028c.086.059.173.117.261.175l.054.035c.09.058.18.116.272.173l.04.025c1.384.856 3.098 1.635 5.12 2.323C14.8 24.923 22.174 25.966 30 25.966c7.825 0 15.198-1.043 20.762-2.936 2.022-.688 3.735-1.467 5.12-2.323l.04-.024.272-.174.053-.035c.089-.058.175-.116.26-.175l.041-.028c.091-.063.18-.126.268-.19l.002-.002a12.599 12.599 0 0 0 .822-.652l.016-.013v8.685ZM7.529 19.854c1.021-.466 2.417-1.002 4.273-1.523C16.845 16.917 23.308 16.14 30 16.14s13.154.778 18.197 2.192c1.856.52 3.253 1.056 4.273 1.523-4.85 2.162-12.788 3.768-22.47 3.768-9.682 0-17.621-1.607-22.47-3.768Zm50.12-4.7a2.297 2.297 0 0 1-.025.205l-.002.01a2.48 2.48 0 0 1-.092.366l-.01.03a2.992 2.992 0 0 1-.086.22c-.012.028-.026.056-.04.085a3.2 3.2 0 0 1-.085.169l-.008.015c-.488.88-1.409 1.65-2.323 2.25-1.213-.699-3.16-1.592-6.148-2.43-5.243-1.47-11.93-2.279-18.83-2.279-6.9 0-13.587.81-18.83 2.28-2.988.837-4.935 1.73-6.149 2.43-.913-.601-1.834-1.371-2.322-2.251l-.008-.015a3.343 3.343 0 0 1-.086-.17l-.04-.084a2.97 2.97 0 0 1-.086-.22l-.01-.03a2.601 2.601 0 0 1-.092-.365l-.001-.01a2.318 2.318 0 0 1-.032-.377c0-4.086 11.358-8.64 27.656-8.64s27.656 4.554 27.656 8.64c0 .057-.003.114-.008.172Z"
            fill=""></path>
        <path
            d="M48.176 11.643a1.183 1.183 0 0 0-.498-.745 1.184 1.184 0 0 0-.88-.175 1.208 1.208 0 0 0-.6.32 1.185 1.185 0 0 0-.32 1.058 1.185 1.185 0 0 0 .32.6 1.274 1.274 0 0 0 .381.253 1.21 1.21 0 0 0 .45.09 1.148 1.148 0 0 0 .447-.09 1.242 1.242 0 0 0 .38-.253 1.183 1.183 0 0 0 .32-1.058ZM43.483 9.86C39.446 9.1 34.85 8.7 30.193 8.7c-6.444 0-12.675.764-17.543 2.154a1.172 1.172 0 0 0 .643 2.254c4.665-1.332 10.667-2.065 16.9-2.065 4.514 0 8.96.388 12.857 1.121a1.172 1.172 0 0 0 .433-2.303ZM14.121 29.61a1.22 1.22 0 0 0-.175-.423 1.202 1.202 0 0 0-.325-.325 1.181 1.181 0 0 0-1.478.147 1.124 1.124 0 0 0-.253.38 1.22 1.22 0 0 0-.09.449 1.184 1.184 0 0 0 .521.973c.063.044.131.08.203.108a1.149 1.149 0 0 0 1.098-.108 1.156 1.156 0 0 0 .432-.526 1.154 1.154 0 0 0 .067-.676Z"
            fill=""></path>
    </symbol>
    <symbol fill="" xmlns="http://www.w3.org/2000/svg" viewBox="0 0 60 60" id="icon-sleeping-area">
        <path
            d="M57.953 19.966 30.98.226a1.172 1.172 0 0 0-1.384 0L2.624 19.966a1.172 1.172 0 0 0-.254 1.638l3.526 4.817a1.172 1.172 0 0 0 1.638.253l1.063-.778v32.932c0 .647.525 1.172 1.172 1.172h41.1c.647 0 1.172-.525 1.172-1.172V25.941l1.002.733a1.172 1.172 0 0 0 1.638-.253l3.525-4.817a1.172 1.172 0 0 0-.253-1.638Zm-8.256 33.12H21.972a1.172 1.172 0 0 0 0 2.343h27.725v2.227H10.941V25.105h27.443a1.172 1.172 0 0 0 0-2.344H12.881l17.407-12.74 19.41 14.205v28.86Zm3.784-28.995-22.5-16.468a1.17 1.17 0 0 0-1.385 0L7.095 24.091l-2.141-2.926L30.288 2.624l25.335 18.541-2.142 2.926Z"
            fill=""></path>
        <path
            d="M43.755 23.705a1.223 1.223 0 0 0-.175-.422 1.181 1.181 0 0 0-.974-.522 1.18 1.18 0 0 0-1.082.723 1.149 1.149 0 0 0 .108 1.1 1.124 1.124 0 0 0 .324.323 1.166 1.166 0 0 0 .878.175 1.164 1.164 0 0 0 .921-.92 1.155 1.155 0 0 0 0-.457ZM18.899 54.028a1.174 1.174 0 0 0-1.977-.6 1.184 1.184 0 0 0-.321.6 1.158 1.158 0 0 0 .32 1.058 1.186 1.186 0 0 0 .829.343 1.182 1.182 0 0 0 .974-.52 1.183 1.183 0 0 0 .175-.88ZM44.845 30.574c0-.994-.39-1.926-1.098-2.626a3.726 3.726 0 0 0-2.637-1.072 3.721 3.721 0 0 0-.913.124 40.49 40.49 0 0 0-6.338 2.197 15.473 15.473 0 0 0-3.57-.416 15.403 15.403 0 0 0-3.57.415 40.487 40.487 0 0 0-6.37-2.205 3.668 3.668 0 0 0-3.263.726 3.665 3.665 0 0 0-1.348 3.058 40.297 40.297 0 0 0 .96 6.87 12.76 12.76 0 0 0-.752 2.883 9.11 9.11 0 0 0-.087 1.243c0 5.246 4.575 9.514 10.198 9.514h8.463c3.083 0 5.966-1.281 7.912-3.516 1.783-2.048 2.564-4.62 2.2-7.242a12.841 12.841 0 0 0-.753-2.882c.516-2.257.837-4.555.96-6.867.004-.069.006-.136.006-.204Zm-2.346.073v.004a38.15 38.15 0 0 1-.987 6.819c-.058.243-.036.5.062.73a10.494 10.494 0 0 1 .736 2.65c.27 1.94-.315 3.85-1.647 5.38-1.5 1.723-3.74 2.711-6.143 2.711h-8.464c-4.33 0-7.854-3.216-7.854-7.17 0-.303.022-.614.064-.921.128-.912.375-1.803.736-2.65.099-.23.12-.486.062-.73a37.937 37.937 0 0 1-.987-6.819 1.345 1.345 0 0 1 .495-1.122 1.346 1.346 0 0 1 1.175-.272l.023.006a38.098 38.098 0 0 1 6.352 2.235c.248.113.526.137.79.067a13.001 13.001 0 0 1 3.376-.44c1.148 0 2.283.148 3.376.44.262.07.54.046.788-.066a38.15 38.15 0 0 1 6.375-2.242c.1-.024.203-.036.306-.037h.015a1.364 1.364 0 0 1 1.249.834 1.337 1.337 0 0 1 .102.593Z"
            fill=""></path>
        <path
            d="M32.486 43.566c-.565 0-1.026-.46-1.026-1.026a1.172 1.172 0 0 0-2.344 0v.043c0 .566-.46 1.026-1.025 1.026a1.172 1.172 0 0 0 0 2.344c.85 0 1.628-.317 2.222-.84a3.354 3.354 0 0 0 2.173.797 1.172 1.172 0 0 0 0-2.344ZM26.192 38.166l-1.74-.797a1.17 1.17 0 0 0-.977 0l-1.74.797a1.172 1.172 0 1 0 .975 2.131l1.253-.574 1.253.574a1.172 1.172 0 1 0 .976-2.13ZM38.842 38.166l-1.74-.797a1.17 1.17 0 0 0-.976 0l-1.741.797a1.172 1.172 0 1 0 .976 2.13l1.253-.573 1.252.574a1.172 1.172 0 0 0 .976-2.13Z"
            fill=""></path>
    </symbol>
    <symbol fill="" xmlns="http://www.w3.org/2000/svg" viewBox="0 0 40 32" id="icon-email">
        <path
            d="M39.315 3H.685a.68.68 0 0 0-.484.204.7.7 0 0 0-.201.491v24.61a.7.7 0 0 0 .2.491.68.68 0 0 0 .485.204h38.63a.68.68 0 0 0 .484-.204.7.7 0 0 0 .201-.491V3.695a.7.7 0 0 0-.2-.491.68.68 0 0 0-.485-.204Zm-6.738 15.033c.108.493.218 1.002.074 1.255-.154.272-.654.43-1.138.582-.381.12-.776.245-1.127.451-.34.2-.634.48-.918.75-.39.372-.76.723-1.094.723-.334 0-.703-.352-1.094-.724-.284-.27-.578-.55-.918-.749-.351-.206-.746-.33-1.127-.451-.484-.153-.984-.31-1.138-.582-.144-.253-.034-.762.073-1.255.088-.405.18-.823.18-1.25 0-.429-.092-.847-.18-1.252-.107-.493-.217-1.002-.073-1.255.154-.271.654-.43 1.138-.582.381-.12.776-.245 1.127-.451.34-.2.634-.479.918-.75.39-.371.76-.723 1.094-.723.334 0 .703.352 1.094.724.284.27.578.55.918.749.351.206.746.33 1.127.451.484.153.984.31 1.138.582.144.253.034.762-.074 1.255-.087.404-.178.823-.178 1.25 0 .43.09.848.178 1.252Zm-1.98-6.372-.192-.181c-.515-.49-1.155-1.1-2.031-1.1-.876 0-1.516.61-2.031 1.1-.238.226-.463.44-.667.56-.219.128-.524.225-.848.327-.7.22-1.494.471-1.917 1.213-.41.72-.234 1.533-.078 2.25.075.348.146.676.146.952 0 .277-.07.605-.146.952-.135.622-.286 1.316-.055 1.959L20 22.546 2.324 4.39h35.35l-7.076 7.27ZM11.701 16 1.37 26.612V5.388L11.7 16Zm.963.989 6.848 7.035a.683.683 0 0 0 .752.153.684.684 0 0 0 .223-.153l3.197-3.284c.36.21.765.338 1.144.458.324.102.63.198.848.326.204.12.428.334.667.56.515.49 1.155 1.1 2.031 1.1.876 0 1.516-.61 2.031-1.1.238-.226.463-.44.667-.56a2.73 2.73 0 0 1 .478-.206l6.125 6.291H2.325l10.338-10.62Zm20.302 3.806c.346-.184.656-.434.871-.81.41-.721.234-1.534.078-2.251-.075-.347-.146-.675-.146-.952 0-.276.07-.604.146-.951.156-.718.333-1.53-.078-2.251-.423-.742-1.217-.992-1.917-1.213l-.064-.02 6.774-6.96v21.225l-5.664-5.817Z"
            fill=""></path>
        <path
            d="M28.374 13.242c-1.923 0-3.487 1.588-3.487 3.54s1.564 3.54 3.487 3.54 3.487-1.588 3.487-3.54-1.564-3.54-3.487-3.54Zm0 5.69c-1.168 0-2.118-.965-2.118-2.15s.95-2.15 2.118-2.15 2.117.965 2.117 2.15-.95 2.15-2.117 2.15Z"
            fill=""></path>
    </symbol>
    <symbol fill="" xmlns="http://www.w3.org/2000/svg" viewBox="0 0 40 32" id="icon-phone">
        <path
            d="m39.946 8.895-2.436-5.99a.696.696 0 0 0-.471-.419l-2.928-.778c-8.572-2.277-19.65-2.277-28.222 0l-2.928.778a.695.695 0 0 0-.471.419L.054 8.895a.735.735 0 0 0-.013.518l.974 2.796a.714.714 0 0 0 .315.383.686.686 0 0 0 .483.08l9.256-1.897c.14-.029.267-.1.366-.204a.726.726 0 0 0 .188-.381l.802-4.864c4.412-1.136 10.738-1.136 15.15 0l.802 4.864c.024.144.09.276.188.38a.696.696 0 0 0 .366.205l9.256 1.897a.686.686 0 0 0 .483-.08.714.714 0 0 0 .315-.383l.974-2.796a.736.736 0 0 0-.013-.518ZM2.132 11.141l-.5-1.435 8.965-1.92-.276 1.677-8.19 1.678Zm9.49-7.084a.698.698 0 0 0-.334.21.726.726 0 0 0-.17.363l-.27 1.635L1.86 8.19l1.79-4.403L6.24 3.1c8.36-2.22 19.16-2.22 27.52 0l2.59.688 1.79 4.403-8.988-1.925-.27-1.635a.726.726 0 0 0-.17-.362.7.7 0 0 0-.334-.211c-4.776-1.35-11.98-1.35-16.756 0Zm26.246 7.084L29.68 9.463l-.276-1.677 8.965 1.92-.5 1.435Z"
            fill=""></path>
        <path
            d="M33.29 13.119a.724.724 0 0 0-.19-.355.696.696 0 0 0-.348-.192l-4.774-1.046-.602-4.012a.723.723 0 0 0-.236-.436.691.691 0 0 0-.457-.173h-1.869v-.941a.71.71 0 0 0-.701-.718.71.71 0 0 0-.701.718v.94h-6.824v-.94a.71.71 0 0 0-.7-.718.71.71 0 0 0-.702.718v.94h-1.87a.691.691 0 0 0-.456.174.723.723 0 0 0-.236.436l-.602 4.012-4.774 1.046a.696.696 0 0 0-.347.192.723.723 0 0 0-.191.355L3.468 28.088a.738.738 0 0 0-.017.155v3.039c0 .19.074.373.206.508.131.134.31.21.495.21h31.696a.693.693 0 0 0 .495-.21.728.728 0 0 0 .206-.508v-3.039a.733.733 0 0 0-.017-.155l-3.242-14.97Zm-25.309.761 4.808-1.053a.697.697 0 0 0 .363-.21.726.726 0 0 0 .183-.383l.583-3.893h12.164l.583 3.893a.726.726 0 0 0 .183.384.697.697 0 0 0 .364.21l4.807 1.052 2.955 13.645H5.026L7.981 13.88Zm3.816 15.082-.904 1.601H9.829l.903-1.601h1.066Zm1.619 0h15.256l-.903 1.601H12.513l.903-1.601Zm-8.563 0h4.258l-.903 1.601H4.853v-1.601Zm24.535 1.601.904-1.601h4.855v1.601h-5.758Z"
            fill=""></path>
        <path
            d="M20 26.16c4.15 0 7.525-3.458 7.525-7.71S24.149 10.74 20 10.74c-4.15 0-7.525 3.458-7.525 7.71s3.376 7.71 7.525 7.71Zm0-13.984c3.376 0 6.123 2.815 6.123 6.274 0 3.46-2.747 6.274-6.123 6.274-3.376 0-6.123-2.815-6.123-6.274 0-3.46 2.747-6.274 6.123-6.274Z"
            fill=""></path>
        <path
            d="M20 21.185c1.472 0 2.67-1.227 2.67-2.735 0-1.508-1.198-2.735-2.67-2.735s-2.67 1.227-2.67 2.735c0 1.508 1.198 2.735 2.67 2.735Zm0-4.034c.699 0 1.267.583 1.267 1.299s-.568 1.298-1.267 1.298-1.267-.582-1.267-1.298c0-.716.568-1.299 1.267-1.299Z"
            fill=""></path>
    </symbol>
    <symbol fill="" xmlns="http://www.w3.org/2000/svg" viewBox="0 0 22 32" id="icon-marker">
        <path
            d="M11 0C4.935 0 0 4.785 0 10.667c0 1.765.455 3.516 1.32 5.069l9.079 15.92A.69.69 0 0 0 11 32a.69.69 0 0 0 .602-.344l9.08-15.926A10.429 10.429 0 0 0 22 10.667C22 4.785 17.065 0 11 0Zm8.476 15.09L11 29.956l-8.473-14.86a9.121 9.121 0 0 1-1.152-4.43c0-5.146 4.318-9.333 9.625-9.333s9.625 4.187 9.625 9.334a9.115 9.115 0 0 1-1.149 4.424Z"
            fill=""></path>
        <path
            d="M11 5.333c-3.033 0-5.5 2.393-5.5 5.334C5.5 13.607 7.967 16 11 16s5.5-2.393 5.5-5.333c0-2.941-2.467-5.334-5.5-5.334Zm0 9.334c-2.275 0-4.125-1.795-4.125-4 0-2.206 1.85-4 4.125-4s4.125 1.794 4.125 4c0 2.205-1.85 4-4.125 4Z"
            fill=""></path>
    </symbol>
    <symbol fill="" xmlns="http://www.w3.org/2000/svg" viewBox="0 0 12 12" id="close">
        <path fill-rule="evenodd" clip-rule="evenodd" d="m7.426 6 4.279-4.278A1.008 1.008 0 1 0 10.278.295L6 4.574 1.721.295A1.008 1.008 0 1 0 .295 1.722L4.574 6 .295 10.278a1.008 1.008 0 0 0 1.426 1.427L6 7.426l4.278 4.279a1.008 1.008 0 1 0 1.427-1.427L7.426 6Z" fill=""></path>
    </symbol>
</svg>
