<svg width="0" height="0" class="hidden">
    <symbol fill="" xmlns="http://www.w3.org/2000/svg" viewBox="0 0 18 13" id="youtube">
        <path fill-rule="evenodd" clip-rule="evenodd"
            d="M12.006 5.773 7.494 3.517s-1.254-.57-1.254.502V9.03s.024.764 1.254.25c.856-.357 4.512-2.255 4.512-2.255s.933-.598 0-1.253Zm5.515 5.012c-.559 1.59-1.754 1.795-2.757 2.005-1.479.31-10.992.271-12.535-.25-.962-.326-1.554-.466-2.005-2.757-.289-1.466-.308-5.78 0-7.268C.522 1.075 1.27.398 2.73.259c3.92-.371 10.474-.319 12.534 0 1.91.296 2.309 1.435 2.507 2.506.32 1.735.358 6.287-.25 8.02Z"
            fill=""></path>
    </symbol>
    <symbol fill="none" xmlns="http://www.w3.org/2000/svg" viewBox="0 0 87 96" id="zoo">
        <path
            d="M39.9738 5.26397C39.6244 4.93634 39.2749 4.69607 38.9472 4.52134C38.6196 4.36844 38.2483 4.28107 37.8333 4.28107C37.3528 4.28107 37.0033 4.39028 36.763 4.58686C36.5228 4.78344 36.3917 5.11108 36.3917 5.54792C36.3917 5.85371 36.5228 6.13766 36.7849 6.33424C37.047 6.55266 37.3528 6.74924 37.7459 6.94582C38.1391 7.1424 38.5541 7.33898 38.9909 7.5574C39.4278 7.77582 39.8428 8.01609 40.2359 8.32188C40.6291 8.62767 40.9349 8.97715 41.197 9.41399C41.4591 9.85083 41.5902 10.375 41.5902 10.9866C41.5902 11.9258 41.3281 12.734 40.8257 13.4111C40.3233 14.0882 39.537 14.5251 38.5322 14.7653V16.8185H36.632V14.8527C36.0641 14.7872 35.4525 14.6343 34.8191 14.3722C34.1856 14.1101 33.6396 13.7824 33.1809 13.3674L34.4478 11.4235C34.9501 11.7948 35.4307 12.0787 35.8675 12.2753C36.3262 12.4719 36.7849 12.5593 37.2436 12.5593C37.7896 12.5593 38.2046 12.4501 38.4449 12.2316C38.707 12.0132 38.838 11.6637 38.838 11.2051C38.838 10.8556 38.707 10.5716 38.4449 10.3314C38.1828 10.0911 37.877 9.87268 37.4838 9.65425C37.0907 9.43583 36.6757 9.21741 36.2388 8.99899C35.802 8.78057 35.387 8.51846 34.9938 8.21267C34.6007 7.90688 34.2949 7.5574 34.0328 7.1424C33.7706 6.7274 33.6396 6.24687 33.6396 5.65713C33.6396 4.69607 33.9017 3.88791 34.4259 3.25449C34.9501 2.62106 35.6928 2.20606 36.6101 2.03132V0H38.5104V1.98764C39.1438 2.07501 39.6899 2.27159 40.1704 2.55554C40.6509 2.83949 41.0659 3.18896 41.4591 3.60396L39.9738 5.26397Z"
            fill="#333B41"></path>
        <path fill-rule="evenodd" clip-rule="evenodd"
            d="M87 76.0004L83.4063 73.7889L75.3895 88.1638L79.2597 90.0989L87 76.0004Z" fill="#333B41"></path>
        <path fill-rule="evenodd" clip-rule="evenodd"
            d="M81.4707 73.2356C72.0717 62.4544 63.7785 65.2188 52.7209 72.4062C43.0454 78.7644 35.858 74.3413 28.6705 77.3822C27.0119 78.2115 24.5239 80.1466 26.7354 82.0817C27.8412 82.911 32.2642 83.7403 33.6464 83.4639C41.1103 81.8052 43.3219 85.1225 54.6559 82.911C51.3387 85.399 40.5575 83.7403 33.9229 84.5696C28.6705 85.6754 20.1008 81.5288 27.0119 76.8293C23.971 75.4471 21.2066 74.6178 17.8893 74.3413C14.572 71.8534 9.31965 68.8125 6.55525 67.7067C4.34372 66.3245 -1.1851 66.8774 2.40863 70.4712C6.00236 73.7884 15.6778 81.2523 17.6129 82.3581C25.3532 87.0576 32.5407 90.3749 40.0046 94.5215C40.0046 94.5215 42.4926 95.9037 47.4685 93.9686C51.0622 92.31 67.0958 83.4639 70.966 84.8461C73.1775 85.6754 74.2832 86.2283 74.2832 86.2283L81.4707 73.2356Z"
            stroke="#333B41" stroke-width="1.5"></path>
        <path fill-rule="evenodd" clip-rule="evenodd"
            d="M34.7528 72.4061C35.3057 71.3003 35.8586 70.471 36.6879 70.1946C37.5172 69.9181 37.7937 70.471 38.3465 71.0239C38.8994 71.8532 39.1759 72.1297 40.0052 72.6825C40.2816 72.959 40.8345 72.959 41.1109 72.959L40.5581 72.6825C39.7287 72.1297 39.1759 71.5768 39.4523 70.471C39.4523 70.1946 39.1759 69.6417 39.7287 69.6417C40.2816 69.9181 41.1109 70.471 41.9403 70.471C41.9403 70.471 42.7696 70.7475 42.4931 70.471C42.4931 70.1946 41.9403 69.9181 41.6638 69.6417C40.0052 68.2595 40.0052 67.983 40.0052 66.048C40.2816 63.2836 39.1759 61.072 37.2408 59.1369C32.8177 54.7139 34.7528 48.6322 38.0701 42.8269C41.1109 37.5746 43.8753 36.7452 40.8345 30.3871C39.7287 27.6227 37.7937 24.8583 37.5172 23.1996C37.5172 22.6468 37.5172 22.9232 37.5172 23.1996C37.2408 24.8583 38.3465 27.3463 39.4523 29.8342C41.9403 35.363 41.3874 35.9159 37.7937 40.8918C33.9235 45.8678 31.1591 51.1202 32.8177 56.649C33.9235 60.5191 39.4523 64.3893 36.6879 66.8773C35.3057 67.983 33.3706 70.7475 33.0942 72.4061C32.8177 73.2354 32.8177 73.2354 32.5413 73.7883C32.2648 74.0647 32.5413 74.0647 32.8177 74.0647C34.1999 73.7883 34.1999 73.2354 34.7528 72.4061Z"
            fill="#333B41"></path>
        <mask id="path-5-inside-1_44444_157" fill="white">
            <path
                d="M41.1106 62.178C48.0216 62.178 53.5504 53.3319 53.274 47.2502C45.5337 49.4617 41.1106 51.6732 40.2813 54.9905C39.7284 56.6492 40.0048 57.7549 41.387 58.0314C42.2164 57.7549 44.4279 54.1612 48.5745 52.5026C44.9808 55.8198 44.4279 57.7549 41.387 60.5193H41.1106C40.0048 59.9665 38.8991 59.1371 38.6226 58.0314C38.0698 56.9256 38.0698 55.5434 38.3462 54.1612C39.452 51.1203 42.4928 48.6324 47.7452 46.6973C50.5096 45.868 52.9976 44.7622 55.762 44.7622C54.6562 50.8439 53.8269 55.8198 50.2331 59.69C45.8101 64.1131 41.387 62.178 41.1106 62.178Z">
            </path>
        </mask>
        <path
            d="M41.1106 62.178C48.0216 62.178 53.5504 53.3319 53.274 47.2502C45.5337 49.4617 41.1106 51.6732 40.2813 54.9905C39.7284 56.6492 40.0048 57.7549 41.387 58.0314C42.2164 57.7549 44.4279 54.1612 48.5745 52.5026C44.9808 55.8198 44.4279 57.7549 41.387 60.5193H41.1106C40.0048 59.9665 38.8991 59.1371 38.6226 58.0314C38.0698 56.9256 38.0698 55.5434 38.3462 54.1612C39.452 51.1203 42.4928 48.6324 47.7452 46.6973C50.5096 45.868 52.9976 44.7622 55.762 44.7622C54.6562 50.8439 53.8269 55.8198 50.2331 59.69C45.8101 64.1131 41.387 62.178 41.1106 62.178Z"
            stroke="#333B41" stroke-width="3" mask="url(#path-5-inside-1_44444_157)"></path>
        <mask id="path-6-inside-2_44444_157" fill="white">
            <path
                d="M33.9234 41.1681C27.8417 41.4445 23.1422 33.7042 23.4186 28.4518C30.0532 30.3869 33.9234 32.322 34.7527 35.0864C35.3056 36.4686 34.7527 37.5744 33.6469 37.8508C32.8176 37.5744 30.8825 34.5335 27.2888 33.1513C30.6061 35.9157 31.159 37.5744 33.6469 40.0623L33.9234 39.7859C35.0291 39.5095 35.8585 38.9566 36.1349 37.8508C36.6878 36.745 36.6878 35.6393 36.1349 34.5335C35.3056 31.7691 32.8176 29.5576 28.1181 28.1754C25.6301 27.3461 23.6951 26.5167 21.2071 26.2403C22.3129 31.4927 22.8657 35.9157 26.183 39.233C29.7768 43.1032 33.6469 41.4445 33.9234 41.1681Z">
            </path>
        </mask>
        <path
            d="M33.9234 41.1681C27.8417 41.4445 23.1422 33.7042 23.4186 28.4518C30.0532 30.3869 33.9234 32.322 34.7527 35.0864C35.3056 36.4686 34.7527 37.5744 33.6469 37.8508C32.8176 37.5744 30.8825 34.5335 27.2888 33.1513C30.6061 35.9157 31.159 37.5744 33.6469 40.0623L33.9234 39.7859C35.0291 39.5095 35.8585 38.9566 36.1349 37.8508C36.6878 36.745 36.6878 35.6393 36.1349 34.5335C35.3056 31.7691 32.8176 29.5576 28.1181 28.1754C25.6301 27.3461 23.6951 26.5167 21.2071 26.2403C22.3129 31.4927 22.8657 35.9157 26.183 39.233C29.7768 43.1032 33.6469 41.4445 33.9234 41.1681Z"
            stroke="#333B41" stroke-width="3" mask="url(#path-6-inside-2_44444_157)"></path>
        <mask id="path-7-inside-3_44444_157" fill="white">
            <path
                d="M44.1509 31.4934C49.1269 31.4934 53.2735 25.1353 53.2735 20.4358C47.1918 22.0944 44.1509 23.753 43.3216 26.241C43.0452 27.3468 43.3216 28.1761 44.1509 28.4525C44.9803 28.4525 46.6389 25.6881 49.6798 24.3059C46.9153 26.7939 46.3625 28.1761 44.1509 30.3876C43.0452 30.1112 42.4923 29.2819 42.2159 28.4525C41.663 27.6232 41.663 26.5175 41.9394 25.6881C42.7687 23.2002 44.9803 21.5415 48.8504 20.1593C51.062 19.33 52.997 18.7771 54.9321 18.5007C54.1028 22.9237 53.5499 26.7939 50.7855 29.8347C47.4682 33.152 44.1509 31.4934 44.1509 31.4934Z">
            </path>
        </mask>
        <path
            d="M44.1509 31.4934C49.1269 31.4934 53.2735 25.1353 53.2735 20.4358C47.1918 22.0944 44.1509 23.753 43.3216 26.241C43.0452 27.3468 43.3216 28.1761 44.1509 28.4525C44.9803 28.4525 46.6389 25.6881 49.6798 24.3059C46.9153 26.7939 46.3625 28.1761 44.1509 30.3876C43.0452 30.1112 42.4923 29.2819 42.2159 28.4525C41.663 27.6232 41.663 26.5175 41.9394 25.6881C42.7687 23.2002 44.9803 21.5415 48.8504 20.1593C51.062 19.33 52.997 18.7771 54.9321 18.5007C54.1028 22.9237 53.5499 26.7939 50.7855 29.8347C47.4682 33.152 44.1509 31.4934 44.1509 31.4934Z"
            stroke="#333B41" stroke-width="3" mask="url(#path-7-inside-3_44444_157)"></path>
    </symbol>
    <symbol fill="" xmlns="http://www.w3.org/2000/svg" viewBox="0 0 8 16" id="fb">
        <path fill-rule="evenodd" clip-rule="evenodd"
            d="M8 2.75H6.4c-1.102 0-1.067.393-1.067 1.112V5H8l-.533 3H5.333v8H1.6V8H0V5h1.6V3.587C1.6 1.337 2.797 0 5.627 0H8v2.75Z"
            fill=""></path>
    </symbol>
    <symbol fill="" xmlns="http://www.w3.org/2000/svg" viewBox="0 0 64 30" id="alligator">
        <path
            d="M19.6 18.432c-.166-.24-.347-.507-.477-.702a.134.134 0 0 0-.037-.038.109.109 0 0 0-.047-.017c-.644-.076-2.216-.266-3.314-.399a.107.107 0 0 0-.05.007.122.122 0 0 0-.045.03.152.152 0 0 0-.031.05.176.176 0 0 0-.012.06c-.01.322-.003.663.009.864-.419.387-.792.84-1.11 1.348-.11.168-.18.37-.199.583-.019.213.012.429.09.622s.199.356.35.47a.838.838 0 0 0 .505.175h1.989c.16 0 .317-.043.461-.125a1.13 1.13 0 0 0 .373-.35l1.548-2.386a.175.175 0 0 0 .026-.097.173.173 0 0 0-.029-.095ZM61.59 10.66c-1.7-1.899-4.278-3.595-7.884-5.189C46.867 2.452 30.65.104 29.963.005a.494.494 0 0 0-.206.015L24.13 1.71h-8.24c-1.601 0-4.296.728-5.033 2.661A795.293 795.293 0 0 0 5.73 7.698c-.66-.082-2.825-.236-4.728.938a2.045 2.045 0 0 0-.759.871c-.177.373-.26.8-.24 1.228.02.428.145.84.357 1.186a1.922 1.922 0 0 0 .878.777c.224.078 5.509 1.918 7.397 2.22.553.088 1.151.19 1.8.3a197.695 197.695 0 0 0 3.867.624l5.348.66s1.14 1.758 1.315 1.99c-.298.419-.536.896-.702 1.41a1.352 1.352 0 0 0 .086 1.074c.087.156.204.284.343.373a.827.827 0 0 0 .448.136h2.064a.927.927 0 0 0 .467-.128c.146-.084.274-.206.375-.358l1.527-2.29c.145-.217.228-.485.236-.763.005-.204.006-.5-.013-.872a.18.18 0 0 1 .008-.062.158.158 0 0 1 .027-.052.13.13 0 0 1 .043-.035.11.11 0 0 1 .05-.012c1.474.037 7.187.01 9.128-.076.03-.001.06.01.083.031.023.022.04.053.046.088.069.33.087.672.054 1.01a4.975 4.975 0 0 0-1.538 1.74 1.335 1.335 0 0 0-.05 1.174c.082.183.203.336.35.442a.834.834 0 0 0 .49.163h2.84a.94.94 0 0 0 .552-.183c.494-.502 1.756-1.772 1.997-2.015a.3.3 0 0 0 .064-.098l1.287-3.126.221-.025c.373-.04 1.064-.11 1.942-.143 2.849-.104 8.224-.936 10.206-1.308.807-.152 2.066.5 2.749 1.422.21.284.543.84.417 1.386-.461 1.991-2.574 3.844-5.95 5.22-4.168 1.697-17.192 2.278-22.599 2.449-.307.01-.603.147-.836.389-.233.241-.39.572-.443.937-.053.364 0 .739.15 1.061.151.323.39.573.677.708C30.073 29.25 34.062 30 39.11 30c4.24 0 9.228-.53 14.593-1.833C60.778 26.449 64 20.98 64 16.627c0-2.172-.811-4.179-2.411-5.966Zm-49.33-4.677c.14 0 .276.05.392.142a.832.832 0 0 1 .26.38c.053.155.067.325.04.49a.91.91 0 0 1-.193.433.678.678 0 0 1-.361.231.596.596 0 0 1-.407-.048.75.75 0 0 1-.316-.312.971.971 0 0 1-.12-.47.94.94 0 0 1 .207-.598.651.651 0 0 1 .498-.248Zm-1.665 7.877c-.65-.111-1.253-.213-1.808-.301-1.328-.212-4.583-1.28-6.235-1.838.551.076.98.093.991.093.332 0 1.146.026 2.088.056.809.025 1.704.053 2.543.075l.708 1.032a.169.169 0 0 0 .063.056.139.139 0 0 0 .152-.017.186.186 0 0 0 .053-.07l.44-.974.678.003.578.98a.176.176 0 0 0 .06.062.14.14 0 0 0 .151-.003.179.179 0 0 0 .058-.064l.557-1.042c2.143-.176 5.576-.444 7.482 3.17-3.487-.36-6.279-.831-8.56-1.218Zm29.954 6.198c-.041.195-.039.399.006.592.046.193.132.369.252.509.188.213.437.33.695.325h2.72a.924.924 0 0 0 .467-.127c.145-.085.273-.207.374-.36l1.704-2.557c.102-.153.174-.33.21-.522.036-.19.036-.388-.001-.579l-.05-.492a.161.161 0 0 0-.045-.1.113.113 0 0 0-.09-.034c-1.15.102-4.191.3-4.895.352a.118.118 0 0 0-.082.045.167.167 0 0 0-.036.1 6.643 6.643 0 0 0-.003.798 3.023 3.023 0 0 0-.783.878c-.21.352-.36.75-.443 1.172Z"
            fill=""></path>
    </symbol>
    <symbol fill="" xmlns="http://www.w3.org/2000/svg" viewBox="0 0 18 10" id="arrow-prev">
        <path
            d="m5.002 9.108.104.101.105-.101.14-.136.111-.108-.11-.107-3.603-3.494H17.15V4.77H1.75L5.35 1.277l.111-.108-.11-.108L5.21.925 5.106.824l-.104.101L.896 4.91l-.111.108.11.107 4.107 3.984Z"
            fill="" stroke="" stroke-width=".3"></path>
    </symbol>
    <symbol fill="" xmlns="http://www.w3.org/2000/svg" viewBox="0 0 18 10" id="arrow-next">
        <path
            d="m12.998.892-.104-.101-.105.101-.14.136-.111.108.11.108 3.602 3.493H.85v.493h15.4L12.65 8.724l-.111.107.11.108.141.136.104.101.105-.101 4.106-3.984.111-.108-.11-.107L12.997.892Z"
            fill="" stroke="" stroke-width=".3"></path>
    </symbol>
    <symbol fill="" xmlns="http://www.w3.org/2000/svg" viewBox="0 0 33 37" id="banana-bamboo">
        <path fill-rule="evenodd" clip-rule="evenodd"
            d="M24.398 31.625c-.46-1.644-1.834-3.575-2.904-5.66l2.904 5.66Zm2.584-.188c-1.527-2.23-2.446-4.767-3.365-7.305-.762-.74-1.37-.43-1.977-.121-1.062.916-2.125 1.082-.907 1.964 1.527 2.23 2.597 4.315 3.363 6.555l1.215-.619c.607-.309.758-.761 1.67-.474Zm-6.558-7.558c-.461-1.645-1.835-3.575-2.905-5.66l2.905 5.66Zm-4.128-8.044c-.307-1.347-1.834-3.576-2.751-5.363l2.904 5.66-.153-.297Zm2.585-.188c-1.374-1.931-2.293-4.47-3.366-7.305-.609-.441-1.216-.132-1.823.177-1.062.916-2.126 1.081-.907 1.964a26.676 26.676 0 0 1 3.363 6.555l1.214-.619c.455-.607.758-.761 1.519-.772Zm-6.559-7.558c-.308-1.347-1.834-3.576-2.751-5.363l2.904 5.66-.153-.297Zm2.584-.188C13.533 5.97 12.613 3.43 11.541.596c-.61-.441-1.216-.132-1.824.177-1.061.916-2.278.783-.907 1.964a26.674 26.674 0 0 1 3.363 6.554c.304-.154.911-.463 1.062-.916.607-.309.911-.463 1.671-.474Zm-.584 8.563c-1.217-.132-2.13-.42-3.347-.551 1.217.132 1.977.12 3.347.55-1.826-.573-3.196-1.003-4.87-1.279 1.37.43 2.587.563 4.413 1.136-1.979-.871-3.652-1.147-5.174-1.875 1.37.43 2.739.86 4.718 1.732-1.676-1.026-3.502-1.6-5.328-2.173 1.826.574 3.805 1.445 6.24 2.46.457.143.457.143 0 0Zm-.608.309s-.303.154-.456-.143c-2.28.033-4.257-.088-6.081.089 1.673.275 3.497.099 5.32-.078-1.823.177-3.344.199-4.711.519 1.52-.022 3.344-.2 5.168-.376-1.52.022-2.888.343-4.255.663 1.824-.177 3.191-.497 4.712-.52l-3.192.497c1.064-.165 2.128-.33 3.192-.497l.303-.154Zm.918 1.788c-.608.309-1.062.916-1.973 1.38.607-.31 1.061-.917 1.973-1.38-.912.463-1.973 1.38-2.884 1.843.91-.464 1.669-1.225 2.58-1.689-1.215.618-2.43 1.236-3.491 2.152.758-.761 1.973-1.38 3.187-1.997l-3.644 1.854c1.215-.618 2.58-1.689 4.099-2.461.303-.155.456.143.153.298Zm.152.297-.303.155c-1.213 1.368-2.122 2.582-2.727 3.642.605-1.06 1.514-2.274 2.272-3.035-.605 1.06-1.363 1.821-1.968 2.88.605-1.059 1.514-2.273 2.119-3.332-.605 1.059-.907 1.964-1.361 2.57.454-.606 1.06-1.665 1.665-2.725-.302.905-.756 1.512-.907 1.964.454-.607.452-1.357.907-1.964l.303-.155Zm.758-.761.608-.31c.153.299.153.299.61.442 1.526 2.23 2.596 4.315 3.362 6.555.304-.155.91-.464 1.215-.618.454-.608.758-.762 1.518-.773-1.374-1.931-2.293-4.47-3.365-7.305-.61-.441-1.217-.132-1.824.177-.758.761-1.518.773-1.67 1.225-.152-.298-.609-.441-.761-.74-.153-.297-.61-.44-1.372-1.18-1.979-.871-5.174-1.875-6.848-2.15.459.893 2.894 1.908 4.873 2.78-1.977-.122-4.56.066-6.079.839 1.523.728 7.147.495 8.818.02 0 0 .304-.154.457.144.456.144.913.287 1.066.585-.304.154-.608.309-1.064.166l-.911.463c-1.671.475-3.644 1.855-4.706 2.77.914.287 2.735-.64 4.1-1.71-.908 1.214-1.968 2.88-2.573 3.94 1.367-.32 3.79-3.808 3.94-5.011l.606-.309Z"
            fill="#55B807"></path>
        <path
            d="m28.174 10.24.004-.015v-.014l-.096-6.058v-.01l-.002-.01c-.049-.222.058-.437.294-.61.236-.175.588-.295.98-.318.775-.046 1.678.29 2.119 1.293-.189.876-.296 1.74-.402 2.6v.001c-.109.872-.216 1.738-.406 2.615l-.01.042.025.036c2.461 3.585 2.731 7.493 1.519 11.026-1.214 3.535-3.914 6.697-7.396 8.776-3.48 2.08-7.737 3.073-12.06 2.28-4.318-.793-8.711-3.369-12.47-8.444-.14-.582-.195-1.068-.165-1.455.03-.392.147-.673.344-.855.197-.183.49-.282.9-.277.411.005.932.114 1.573.338 10.492 4.357 22.114.29 25.25-10.942Z"
            fill="#FFEB00" stroke="#55B807" stroke-width=".2"></path>
    </symbol>
    <symbol fill="" xmlns="http://www.w3.org/2000/svg" viewBox="0 0 69 30" id="cheetah">
        <path opacity=".5" d="M34.153 6.927h-.016c.377.016.469.02.016 0Z" fill=""></path>
        <path
            d="M67.849 18.636c-.81-.332-5.056-2.546-6.797-2.671-1.74-.125-1.33.326-2.897-.553l-1.57-.878s.735-1.38 1.051-3.244c.317-1.864.613-2.885.613-2.885s2.81-1.95 4.272-1.137c1.464.812 1.455.849 2.238.446.784-.403-.013-1.2-.013-1.2s.613.77 1.03-.049c.18-.354.719-1.267-.355-2.424-1.334-1.439-.426-1.416-1.068-1.79-.644-.375-2.189-1.319-3.388-1.526C59.74.515 59.757.67 58.923.466c-.26.3.466 1.083.466 1.083s-2.181-.077-3.506.615c-1.323.69-1.307.84-2.866 1.536-1.558.697-1.165.014-3.346.782-2.18.768-4.247 2.722-5.859 3.136-2.335.6-11.307-.759-9.676-.692l-4.35-.194c-4.902.272-6.689.629-12.494 5.675-5.805 5.046-8.073 5.65-12.197 5.731-4.123.083-2.41-1.005-4.084-1.037-1.675-.032-.767.89-.754 1.58.014.694 2.344 1.433 5.076 1.433 2.734 0 6.871-1.116 13.873-6.691a435.485 435.485 0 0 0 3.942-3.162c-.193.896-1.587 7.206-2.922 7.843-1.438.688-3.736 1.573-5.38 2.765-1.646 1.193-2.64 4.563-2.766 5.568-.127 1.004.296 1.503.821 1.837.524.332.75.803 1.537.803.786 0 .353-.641.083-1.015-.554-.77-1.49-1.585.039-3.483 2.133-2.651 4.843-2.271 8.03-3.983 3.184-1.71 7.584-5.787 7.584-5.787s2.368-.484 4.415.513 3.644 2.396 6.706 2.919c3.062.52 11.054-1.338 11.054-1.338s1.218 1.594 3.368 1.694c2.15.1 3.925-1.075 4.882-.892.958.184 4.655.94 5.578 1.497.922.557.605 1.85 2.741.912.3-.134-.261-1.147-1.07-1.478Z"
            fill=""></path>
        <path opacity=".5" d="M58.924.01 58.922 0l.002.01Z" fill=""></path>
        <path
            d="M30.553 15.575c-.615.56-2.622 2.352-4.762 3.92.38.91.676 1.764.682 2.239.017 1.357-2.198 4.636-2.182 5.663.016 1.03.464 1.489 1.032 2.009.57.52 1.093 1.076 1.254-.116.16-1.19-.862-.69-.865-1.4-.003-.709.922-2.253 1.66-3.188.738-.933 2.588-2.595 3.396-4.083.488-.9 1.315-3.286 1.893-5.033a7.647 7.647 0 0 0-2.107-.011ZM59.144 18.806c-.6.19-1.303.411-2.086.529.633.425 1.111.825 1.137 1.085.081.803.32 1.083 0 1.399-.32.316-.488.345-.672.663-.184.315-.24 1.302.236 1.405.476.101.806-.128.972-.483.166-.356 1.007-3.169.996-3.866-.004-.182-.18-.461-.447-.774l-.136.042Z"
            fill=""></path>
    </symbol>
    <symbol fill="" xmlns="http://www.w3.org/2000/svg" viewBox="0 0 54 48" id="eagle">
        <path
            d="m17.642 25.283 3.65-13.446 9.345-6.09h1.898L42.027 0v1.839L33.183 7.01 44.51 2.528l4.088.115-2.774 2.643-11.536 3.678L47.575 6.55l4.964.114-4.38 1.839-11.828 2.069 12.266-.23L54 11.607l-5.403 1.724-11.097-.69 8.907 1.84 2.482 2.068-3.504.345-7.01-2.07 6.863 3.334 1.169 2.184-6.717.344 1.752 1.253.585 2.31-2.191 1.034.73 1.953-1.752.805.146 1.38h-3.14v1.494h-2.637l.958 1.149-3.942-.46 3.942 1.953 3.067 1.724 11.389.805 1.606 1.608-1.606.92-8.03-1.953 8.906 2.873 1.314 1.264h-3.65l-6.57-2.184 7.884 2.988 1.022 1.38-2.337.574-11.972-4.481-3.651-.23 2.482 3.447-2.336-.575 1.524 1.839-8.095-.574-2.92-1.84-.438-2.068-2.191-4.712-8.03-4.253 2.051.033-2.052-1.533 2.832-.153-1.947-.843 1.85-.23-1.655-.92 2.239-.535-1.85-1.303 4.665.658Z"
            fill=""></path>
        <path
            d="m17.705 23.228-9.943-2.543-1.293-2.907-2.043 2.077v1.556l5.992 2.492 6.877.986.41-1.661ZM26.557 44.663l-1.874 1.096v.997l.311.746-1.561-.548V45.66l-1.016 1.245.547 1.095-1.718-1.394 1.874-1.943 1.328-.218 2.11.218Z"
            fill=""></path>
        <path
            d="m22.131 44.444-1.347.56-.423 1.168.917.94-.494-.933 1.347-1.735ZM22.131 43.555l-1.964 1.23-.387.724-.664.194.817-1.41-1.385.503-.359 1.426-.47-.723.802-1.479-1.051.714-.11 1.116-.54-.961 1.286-1.5h2.38l.733-.722.912.888ZM.514 27.075l1.16-.937h1.87l.065-.52 1.934-.73h5.761l1.975 1.302-3.095.313 2.772 1.053-3.03.455 2.837.78h-2.579l1.806 1.431h-1.837l-7.156-1.794H1.16L0 28.974l.514-1.899Zm4.771-.265c.265 0 .48-.174.48-.387 0-.214-.216-.387-.48-.387-.266 0-.48.173-.48.387 0 .213.215.387.48.387Z"
            fill=""></path>
    </symbol>
    <symbol fill="" xmlns="http://www.w3.org/2000/svg" viewBox="0 0 55 47" id="gorilla">
        <path
            d="M29.27 12.086s2.375-2.29 4.504-3.053c0 0-4.994-6.807-15.557-9.033 0 0-3.603 2.163-4.258 6.425 0 0-2.784.572-2.784 2.035l3.357 1.273s6.387-.955 7.206-.764c.819.191.245 2.481-.491 2.863 0 0 .245.763.736 1.081 0 0-1.637 2.608-5.895 1.209 0 0 2.374 3.944-3.603 4.961 0 0-3.439-.763-3.93-4.325 0 0 4.012.254 4.421.7 0 0 .901-.51-2.374-.955 0 0-.491-.381 1.31-1.59l-1.228-.063-.328-2.672S2.823 11.514.94 16.03c0 0-4.176 9.35 5.077 29.58 0 0 6.14.953 10.235-.191 0 0 .245-2.927-.328-3.308l-2.702-1.209s5.322-7.252 3.685-8.587c0 0-1.556-1.145-1.965-1.845 0 0 2.292.89 3.193.89 0 0 1.064-3.307 3.111-5.661 0 0-4.912 15.903-2.865 20.292 0 0 13.756 3.053 13.019-1.463 0 0 .082-1.654-2.047-3.053 0 0 3.766-3.308 3.93-3.754 0 0 3.112-1.335.819-6.806-2.293-5.47-.082-.127-.082-.127s15.64-11.132 5.568-19.91c0 0-4.012-3.69-10.317 1.208Z"
            fill=""></path>
        <path
            d="M20.625 10.051h-7.947L11.172 9.4s.67 2.279 1.004 2.442c0 0 1.84.081 2.844-.57 0 0 1.924 1.465 2.51 1.546 0 0 2.844-1.22 3.095-2.767Z"
            fill=""></path>
        <path
            d="m14.56 11.964-.681 1.087s-.568.622.681.622h.909v-1.399s-.454-.31-.682-.31M13.75 11.964l-.737.854-.982-.107s.737-.694 1.719-.747ZM43.415 22.248s-3.66 5.924-7.321 8.435l.57 3.734s1.87-.386 2.033-.258c.162.13 5.206 7.984 5.124 8.435 0 0-1.708.58-1.708 1.03l-.162 1.352s9.029.708 11.632 0c0 0 2.766-2.447.57-7.726 0 0-3.905-3.477-3.986-4.636 0 0-.733-1.996.487-4.442.082-.13 1.953-6.439-7.24-5.924Z"
            fill=""></path>
        <path
            d="M36.28 36.026s.088 2.043-5.343 5.347c0 0 2.453 2.343 1.927 3.063l2.453-.24s1.664-3.604 1.664-3.965c0 0-1.226-.78-1.402-1.201 0 0 4.38-1.802 2.715-3.004-.437-.18-2.014-.18-2.014 0Z"
            fill=""></path>
    </symbol>
    <symbol fill="" xmlns="http://www.w3.org/2000/svg" viewBox="0 0 16 16" id="instagram">
        <path fill-rule="evenodd" clip-rule="evenodd"
            d="M4.702.048C3.85.087 3.269.222 2.76.42a3.918 3.918 0 0 0-1.417.923c-.445.444-.719.89-.923 1.417-.198.509-.333 1.09-.372 1.942C.01 5.555 0 5.827 0 8s.01 2.445.048 3.298c.039.852.174 1.433.372 1.942.204.526.478.973.923 1.417.445.445.89.718 1.417.923.509.198 1.09.333 1.942.372C5.555 15.99 5.827 16 8 16s2.445-.01 3.299-.048c.851-.039 1.433-.174 1.942-.372a3.925 3.925 0 0 0 1.417-.923c.444-.444.718-.89.922-1.417.198-.509.333-1.09.372-1.942.039-.853.048-1.125.048-3.298s-.009-2.445-.048-3.298c-.039-.852-.174-1.433-.372-1.942a3.923 3.923 0 0 0-.922-1.417A3.923 3.923 0 0 0 13.24.42C12.73.222 12.15.087 11.299.048 10.445.01 10.173 0 8 0S5.555.01 4.702.048Zm.065 14.464c-.78-.036-1.203-.166-1.485-.276a2.482 2.482 0 0 1-.92-.598 2.479 2.479 0 0 1-.598-.92c-.11-.282-.24-.705-.276-1.485-.038-.844-.047-1.097-.047-3.233s.009-2.39.047-3.233c.036-.78.166-1.203.276-1.485a2.48 2.48 0 0 1 .598-.92c.28-.28.546-.454.92-.598.282-.11.705-.24 1.485-.276.844-.038 1.097-.047 3.233-.047s2.39.009 3.233.047c.78.036 1.203.166 1.485.276.374.144.64.318.92.598.28.28.453.546.599.92.11.282.24.705.275 1.485.039.844.046 1.097.046 3.233s-.007 2.389-.046 3.233c-.036.78-.166 1.203-.275 1.485-.146.373-.319.64-.599.92-.28.28-.546.453-.92.598-.282.11-.705.24-1.485.276-.844.038-1.097.046-3.233.046s-2.389-.008-3.233-.046ZM11.31 3.729a.96.96 0 1 0 1.92 0 .96.96 0 0 0-1.92 0ZM3.892 8a4.108 4.108 0 1 0 8.216 0 4.108 4.108 0 0 0-8.216 0Zm1.442 0a2.667 2.667 0 1 1 5.333 0 2.667 2.667 0 0 1-5.333 0Z"
            fill=""></path>
    </symbol>
    <symbol fill="" xmlns="http://www.w3.org/2000/svg" viewBox="0 0 48 38" id="meet-fish">
        <path fill-rule="evenodd" clip-rule="evenodd"
            d="M12.102 8.988a28.216 28.216 0 0 0-.92.849c-1.795 1.729-3.394 3.707-4.543 5.92-1.15 2.215-1.834 4.664-1.77 7.071.028 1.086.213 2.239.85 3.206.11.167.233.327.368.477l2.278 2.556.022.025c.262.293.574.549.937.746a3.33 3.33 0 0 0 1.875.394c.593-.05 1.151-.252 1.646-.52a7.54 7.54 0 0 0 1.308-.925c.772-.66 1.398-1.327 2.063-1.759 1.187-.772 2.726-.994 4.276-1.03 1.56-.037 3.234.086 4.99-.328 2.139-.503 4.121-1.787 5.529-3.517 1.405-1.728 2.208-3.852 2.307-5.94.102-2.193-.573-4.315-1.895-5.937a7.636 7.636 0 0 0-.235-.274l-2.3-2.58c-1.312-1.48-3.159-2.467-5.208-2.77-2.261-.336-4.65.162-6.795 1.148-1.755.807-3.346 1.926-4.781 3.188h-.002Zm1 1.051c.1-.09.204-.177.307-.264 1.24-1.048 2.576-1.953 4.002-2.609 1.897-.872 3.98-1.29 5.878-1.01 1.81.27 3.463 1.193 4.57 2.55 1.107 1.358 1.683 3.167 1.597 5.006-.082 1.748-.766 3.546-1.928 4.974-1.16 1.427-2.822 2.499-4.561 2.908-1.442.34-3.002.245-4.658.284-1.664.04-3.527.249-5.16 1.31-.915.595-1.589 1.333-2.252 1.9a5.87 5.87 0 0 1-.995.71c-.33.18-.67.294-.981.32-.356.03-.731-.053-1.052-.228a2.348 2.348 0 0 1-.823-.777c-.434-.66-.604-1.55-.63-2.49-.055-2.102.547-4.294 1.587-6.297 1.041-2.005 2.514-3.838 4.2-5.46.293-.283.593-.56.899-.827Zm.913 1.036c-.285.248-.564.506-.838.771-1.581 1.523-2.934 3.216-3.873 5.024-.934 1.8-1.459 3.747-1.41 5.558.02.803.177 1.44.419 1.806.117.179.26.305.375.367a.567.567 0 0 0 .267.07c.04-.003.174-.034.347-.127.18-.098.418-.267.697-.505.56-.48 1.278-1.286 2.432-2.036 2.057-1.337 4.23-1.534 6.003-1.576 1.747-.042 3.198.025 4.34-.243 1.36-.32 2.715-1.19 3.64-2.326.93-1.143 1.5-2.63 1.566-4.056.07-1.5-.41-3.01-1.312-4.116-.902-1.105-2.28-1.875-3.752-2.093-1.551-.23-3.342.113-5.003.877-1.256.578-2.466 1.39-3.613 2.36-.095.08-.19.163-.285.245Zm6.768 1.944c.546-.482 1.197-.8 1.811-.886.615-.084 1.14.072 1.464.434.322.362.415.9.257 1.498-.158.597-.553 1.203-1.099 1.685-.27.24-.57.44-.88.592a3.11 3.11 0 0 1-.931.294c-.305.042-.59.025-.841-.05a1.325 1.325 0 0 1-.623-.383 1.315 1.315 0 0 1-.308-.662 1.977 1.977 0 0 1 .05-.837 3.08 3.08 0 0 1 .405-.886c.188-.289.425-.56.695-.8Z"
            fill="#D64F4D"></path>
        <path
            d="M43.06 12.664c-2.434 2.13-2.727 6.238-2.727 6.238-23.02-4.724-27.644 12.605-27.644 12.605s15.198 9.617 28.903-9.397c0 0 3.012 2.822 6.252 2.744 0 0-2.819-2.157-4.103-5.43-1.283-3.271-.68-6.76-.68-6.76ZM18.478 29.047c-.54.21-1.165-.102-1.398-.695-.233-.594.015-1.246.555-1.456.54-.21 1.165.102 1.398.695.233.594-.015 1.246-.555 1.456Zm5.2 2.658a.35.35 0 0 1-.454.278.441.441 0 0 1-.29-.505c.804-3.89-2.113-5.682-2.236-5.756a.443.443 0 0 1-.176-.557.351.351 0 0 1 .508-.152c.036.022 3.582 2.173 2.648 6.692Z"
            fill="#7A7871"></path>
    </symbol>
    <symbol fill="" xmlns="http://www.w3.org/2000/svg" viewBox="0 0 32 6" id="minus">
        <path fill-rule="evenodd" clip-rule="evenodd"
            d="M3.13 6h25.693C30.573 6 32 4.648 32 3.034c0-1.658-1.427-3.01-3.177-3.01H3.131C1.427.024 0 1.376 0 3.034 0 4.648 1.427 6 3.13 6Z"
            fill=""></path>
    </symbol>
    <symbol fill="" xmlns="http://www.w3.org/2000/svg" viewBox="0 0 10 20" id="money">
        <path
            d="M8.078 6.26a5.731 5.731 0 0 0-1.22-.883 3.1 3.1 0 0 0-1.326-.286c-.571 0-.987.13-1.272.364-.286.233-.442.623-.442 1.142 0 .364.156.702.468.935.311.26.675.494 1.143.728.467.234.96.467 1.48.727.52.26 1.013.545 1.48.91.468.363.832.778 1.143 1.298.312.52.468 1.143.468 1.87 0 1.117-.312 2.078-.91 2.883-.596.805-1.532 1.325-2.726 1.61V20h-2.26v-2.338a8.07 8.07 0 0 1-2.156-.571C1.195 16.779.545 16.39 0 15.896l1.506-2.312c.598.442 1.17.78 1.689 1.013.545.234 1.09.338 1.636.338.65 0 1.143-.13 1.429-.39.311-.26.467-.675.467-1.22 0-.416-.156-.754-.467-1.04a5.872 5.872 0 0 0-1.143-.805c-.468-.26-.961-.519-1.48-.779a8.86 8.86 0 0 1-1.481-.935 4.849 4.849 0 0 1-1.143-1.272C.701 8 .545 7.429.545 6.727c0-1.143.312-2.104.936-2.857.623-.753 1.506-1.247 2.597-1.454V0h2.26v2.364a5.228 5.228 0 0 1 1.974.675 7.012 7.012 0 0 1 1.532 1.247L8.078 6.26Z"
            fill=""></path>
    </symbol>
    <symbol fill="" xmlns="http://www.w3.org/2000/svg" viewBox="0 0 126 73" id="monkey">
        <path
            d="M45.173 50.054c-.18-.34-.36-.624-.48-.965-.841-1.932-.841-3.409-.541-5.283.24-1.364.18-2.046-.24-2.557-.48-.568-1.202-.625-2.223-.738h-.18c-.3-.057-.6-.057-.84-.057-2.343-.114-3.665-.057-4.266.795-.6.795-.18 1.988.661 3.693.42.852.6 1.704.72 2.329-1.02.057-2.221.511-3.663 1.08-2.943 1.135-6.968 2.726-11.893 1.306-5.827-1.648-10.692-6.022-13.335-8.408-1.262-1.136-1.802-1.647-2.223-1.76-.6-.171-1.381.226-1.802.454l-.24.113c-.3.227-.72.568-.9.966-.421 1.306-.481 3.75.54 6.476-.36-.17-.6-.227-.841-.284-.6-.057-1.262.398-1.802.909l-.18.17c-.3.285-.661.739-.661 1.193-.12 2.102.96 5.397 3.544 8.465h-.06c-.6.114-1.142.795-1.502 1.42v.227c-.18.398-.36.91-.3 1.364.6 2.329 3.063 5.68 7.208 8.01 2.523 1.42 6.367 2.783 11.653 2.783 2.342 0 4.985-.284 7.868-.965 6.848-1.591 13.215-6.193 15.798-11.59 1.622-3.18 1.682-6.362.18-9.146ZM4.808 41.306s.06-.057.06-.114c.12.228.3.512.48.796 1.563 2.67 4.987 8.691 13.035 11.702-4.985-1.193-9.43-3.636-12.073-5.112-.18-.114-.36-.228-.54-.285-1.262-2.783-1.442-5.51-.962-6.987ZM1.925 49.6s0-.114.12-.227c.18.17.48.511.781.795 2.523 2.67 8.47 8.976 19.342 9.6h1.02a15.31 15.31 0 0 0 3.244-.34c-.12.057-.3.057-.42.114-6.788 1.533-14.296-.17-18.32-1.08-.661-.17-1.202-.284-1.622-.34-3.064-3.012-4.265-6.534-4.145-8.522Zm42.107 9.26c-2.463 5.056-8.47 9.487-15.017 10.964-16.698 3.806-24.507-5.34-25.468-9.09 0-.056 0-.113.06-.284.3.114.66.341 1.021.569 3.424 1.988 11.413 6.59 22.525 4.033 7.328-1.648 11.052-6.988 13.215-10.907.12-.228.06-.568-.24-.682-.24-.114-.601-.057-.721.227-2.042 3.693-5.646 8.806-12.554 10.396-10.692 2.443-18.38-2.045-21.684-3.92-.48-.284-.841-.51-1.142-.624.24-.341.481-.569.601-.569.3-.056 1.562.228 2.763.512 2.883.681 7.569 1.704 12.554 1.704 2.042 0 4.205-.17 6.247-.682 5.286-1.193 8.41-4.204 10.932-7.271a.52.52 0 0 0-.12-.739.592.592 0 0 0-.78.114c-.241.284-.541.625-.782.909-4.264 3.75-8.65 5.453-13.334 5.17-10.392-.569-16.158-6.647-18.621-9.26-.36-.398-.6-.625-.841-.852.3-.228.54-.341.66-.341.301.056 1.322.624 2.343 1.193 3.484 1.931 9.971 5.51 16.819 5.908h1.021c2.403 0 4.445-.455 6.247-1.193h.06c.06 0 .06-.057.12-.057 2.283-.909 4.085-2.159 5.646-3.181.541-.341 1.022-.682 1.442-.966.24-.17.3-.455.18-.682a.594.594 0 0 0-.72-.17c-.481.284-.962.625-1.502.965-1.562 1.023-3.364 2.273-5.647 3.125-2.943.852-5.826.909-8.589.114-9.13-2.557-12.854-9.09-14.476-11.873-.24-.398-.36-.682-.54-.91.3-.113.48-.17.6-.17.24.114 1.021.795 1.802 1.534 2.643 2.386 7.629 6.874 13.695 8.578a16.7 16.7 0 0 0 4.265.568c3.364 0 6.127-1.08 8.35-1.931 1.56-.625 2.882-1.136 3.783-.966h.18c.06 0 .06 0 .12-.057 0 0 .06 0 .06-.057.06 0 .06-.056.12-.056l.061-.057s.06-.057.06-.114 0-.057.06-.113v-.171c-.06-.682-.24-2.045-.84-3.295-.301-.625-1.082-2.215-.722-2.67.3-.454 1.922-.398 3.364-.34.24 0 .48 0 .72.056h.181c.781.057 1.322.17 1.502.341.18.227.18.795.06 1.761-.36 1.988-.36 3.693.6 5.851.12.341.3.682.481 1.023 1.321 2.783 1.261 5.624-.18 8.635Z"
            fill="" stroke="#333B41" stroke-width=".7"></path>
        <path
            d="M42.471 57.894c-.24-.114-.6 0-.72.227-2.283 4.658-7.87 8.748-13.936 10.112-.3.057-.48.34-.42.625.06.227.3.397.54.397h.12c6.428-1.42 12.314-5.737 14.717-10.68.12-.227 0-.51-.3-.681ZM68.4 1.008a15.018 15.018 0 0 0-8.983 2.633 15.113 15.113 0 0 0-5.7 7.451.842.842 0 0 1-.654.551 6.895 6.895 0 0 0-4.145 2.39 6.945 6.945 0 0 0 .1 9.001 6.894 6.894 0 0 0 4.197 2.296.838.838 0 0 1 .69.615 14.578 14.578 0 0 0 4.898 7.558 14.484 14.484 0 0 0 8.391 3.218 35.77 35.77 0 0 0-1.21 7.512l-5.06-.803a4.06 4.06 0 0 0-3.03.731 4.101 4.101 0 0 0-.9 5.71 4.07 4.07 0 0 0 2.657 1.636l6.873 1.09c.195 1.069.44 2.128.73 3.174a9.273 9.273 0 0 0-2.431 6.264v1.447a.844.844 0 0 1-.838.84h-.502a4.513 4.513 0 0 0-3.203 1.331 4.549 4.549 0 0 0-1.328 3.215v1.186a2.56 2.56 0 0 0 .745 1.804 2.54 2.54 0 0 0 1.798.745h32.203c4.329.001 8.609-.917 12.56-2.693a30.722 30.722 0 0 0 10.365-7.614 31.728 31.728 0 0 0 8.734-16.864 21.455 21.455 0 0 0-4.178-15.596 21.605 21.605 0 0 0-10.267-7.263 13.728 13.728 0 0 0-8.573.206 13.785 13.785 0 0 0-6.79 5.257 4.255 4.255 0 0 0 1.114 5.904 4.22 4.22 0 0 0 5.88-1.127 5.32 5.32 0 0 1 2.575-2.012 5.296 5.296 0 0 1 3.26-.123 13.144 13.144 0 0 1 6.096 4.338 12.936 12.936 0 0 1 2.514 9.16 23.221 23.221 0 0 1-6.524 12.287 22.24 22.24 0 0 1-12.413 7.216.242.242 0 0 1-.283-.293 32.164 32.164 0 0 0-1.213-18.821 28.065 28.065 0 0 0-5.708-10.212 27.933 27.933 0 0 0-9.366-6.98c.178-.468.331-.945.46-1.428a.841.841 0 0 1 .69-.616 6.893 6.893 0 0 0 4.196-2.296 6.944 6.944 0 0 0 .098-9.002 6.895 6.895 0 0 0-4.145-2.388.838.838 0 0 1-.654-.55 15.115 15.115 0 0 0-5.309-7.174A15.025 15.025 0 0 0 68.4 1.008Zm-.943 1.106c2.964-.096 5.881.759 8.328 2.44a14.004 14.004 0 0 1 5.283 6.908 1.952 1.952 0 0 0 1.511 1.275 5.79 5.79 0 0 1 3.48 2.005 5.833 5.833 0 0 1-.081 7.558 5.79 5.79 0 0 1-3.522 1.93 1.94 1.94 0 0 0-1.597 1.425 13.486 13.486 0 0 1-2.067 4.376 9.877 9.877 0 0 0-2.486-7.056.246.246 0 0 1 .06-.348 7.22 7.22 0 0 0 1.15-9.682 7.167 7.167 0 0 0-4.378-2.84 7.147 7.147 0 0 0-5.138.888 1.43 1.43 0 0 1-1.48 0h-.016a7.147 7.147 0 0 0-5.133-.88A7.17 7.17 0 0 0 57 12.954a7.22 7.22 0 0 0 1.143 9.674.241.241 0 0 1 .054.268.242.242 0 0 1-.054.08 9.869 9.869 0 0 0-2.359 4.946 13.495 13.495 0 0 1-.832-2.266 1.953 1.953 0 0 0-1.593-1.425 5.789 5.789 0 0 1-3.522-1.93 5.831 5.831 0 0 1-.081-7.558 5.791 5.791 0 0 1 3.48-2.005 1.94 1.94 0 0 0 1.507-1.275 14.007 14.007 0 0 1 4.917-6.649 13.92 13.92 0 0 1 7.798-2.7ZM62.59 11.07a6.049 6.049 0 0 1 3.34.87 2.533 2.533 0 0 0 2.62 0 6.045 6.045 0 0 1 4.341-.742A6.063 6.063 0 0 1 76.59 13.6a6.107 6.107 0 0 1-.97 8.183 1.353 1.353 0 0 0-.39 1.468c.059.17.15.326.27.46a8.777 8.777 0 0 1 1.965 7.914 13.405 13.405 0 0 1-4.965 3.194 13.362 13.362 0 0 1-11.454-1.097 13.434 13.434 0 0 1-4.274-4.08 8.764 8.764 0 0 1 2.216-5.931 1.353 1.353 0 0 0 .198-1.508 1.354 1.354 0 0 0-.328-.42 6.112 6.112 0 0 1-1.786-6.64 6.087 6.087 0 0 1 2.13-2.895 6.05 6.05 0 0 1 3.386-1.181l.003.003Zm44.245 12.026c1.269-.012 2.533.169 3.749.535a20.503 20.503 0 0 1 9.719 6.885 20.343 20.343 0 0 1 3.965 14.75 30.619 30.619 0 0 1-8.448 16.268 29.63 29.63 0 0 1-9.998 7.357 29.516 29.516 0 0 1-12.121 2.604H61.498a1.43 1.43 0 0 1-1.328-.889 1.447 1.447 0 0 1-.11-.552v-1.186a3.447 3.447 0 0 1 1.003-2.43 3.423 3.423 0 0 1 2.423-1.005h.501a1.939 1.939 0 0 0 1.798-1.204 1.96 1.96 0 0 0 .148-.747v-1.447a8.158 8.158 0 0 1 2.441-5.635 8.094 8.094 0 0 1 5.668-2.318c2.118 0 4.153.832 5.668 2.318a8.158 8.158 0 0 1 2.44 5.635v2.476a.556.556 0 0 0 .553.539.552.552 0 0 0 .552-.539v-2.476c0-1.62-.423-3.213-1.228-4.617a9.234 9.234 0 0 0-3.36-3.386 6.503 6.503 0 0 0 4.102-3.017 6.557 6.557 0 0 0 .693-5.057 32.658 32.658 0 0 0-2.439-6.34.554.554 0 1 0-.984.508 31.543 31.543 0 0 1 2.353 6.122 5.454 5.454 0 0 1-1.197 5.046 5.408 5.408 0 0 1-4.867 1.737l-16.5-2.62a2.965 2.965 0 0 1-1.929-1.194 2.988 2.988 0 0 1 .655-4.152 2.958 2.958 0 0 1 2.201-.538l12.703 2.018a.551.551 0 0 0 .627-.463.556.556 0 0 0-.456-.633l-6.543-1.04c.129-2.597.55-5.172 1.254-7.675a14.476 14.476 0 0 0 7.527-2.37 14.557 14.557 0 0 0 5.182-5.97 26.828 26.828 0 0 1 8.991 6.715 26.954 26.954 0 0 1 5.473 9.817 31.05 31.05 0 0 1 1.181 18.202 1.357 1.357 0 0 0 .909 1.606c.215.068.445.08.666.036a23.341 23.341 0 0 0 13.004-7.544 24.333 24.333 0 0 0 6.81-12.887 14.05 14.05 0 0 0-2.73-9.998 14.245 14.245 0 0 0-6.645-4.724 6.398 6.398 0 0 0-3.951.138 6.425 6.425 0 0 0-3.122 2.434 3.136 3.136 0 0 1-2.001 1.318 3.114 3.114 0 0 1-2.343-.489 3.132 3.132 0 0 1-1.312-2.008 3.15 3.15 0 0 1 .487-2.352 12.69 12.69 0 0 1 4.503-4.061 12.636 12.636 0 0 1 5.866-1.502ZM67.689 52.782l3.299.523a9.206 9.206 0 0 0-2.816 1.6 34.588 34.588 0 0 1-.48-2.123h-.003Z"
            fill="" stroke="#333B41" stroke-width=".7"></path>
        <path
            d="M71.843 14.63a2.34 2.34 0 0 0-1.64.713 2.358 2.358 0 0 0-.662 1.666c0 .624.247 1.223.687 1.664a2.34 2.34 0 0 0 3.316 0c.44-.441.686-1.04.686-1.664a2.36 2.36 0 0 0-1.471-2.21 2.337 2.337 0 0 0-.916-.168Zm.02 1.123a1.235 1.235 0 0 1 1.17.77c.063.154.094.32.093.486a1.248 1.248 0 0 1-.765 1.15 1.237 1.237 0 0 1-1.715-1.15 1.247 1.247 0 0 1 .35-.88c.228-.235.54-.37.866-.376ZM62.56 14.63a2.34 2.34 0 0 0-1.64.713 2.358 2.358 0 0 0-.662 1.666 2.361 2.361 0 0 0 .662 1.706 2.342 2.342 0 0 0 2.593.528 2.342 2.342 0 0 0 1.272-1.314c.114-.293.168-.606.16-.92a2.363 2.363 0 0 0-.693-1.695 2.345 2.345 0 0 0-1.692-.683Zm.02 1.123a1.232 1.232 0 0 1 1.167.77c.063.154.094.32.093.486a1.249 1.249 0 0 1-.757 1.177 1.235 1.235 0 0 1-1.635-.692c-.06-.154-.089-.32-.085-.485a1.246 1.246 0 0 1 .35-.88c.228-.235.54-.37.866-.376ZM63.273 28.827a4.865 4.865 0 0 0 3.97 2.064 4.845 4.845 0 0 0 3.97-2.064.557.557 0 0 0-.138-.768.551.551 0 0 0-.766.127 3.758 3.758 0 0 1-3.066 1.595 3.743 3.743 0 0 1-3.067-1.595.553.553 0 0 0-.903.64Z"
            fill="" stroke="#333B41" stroke-width=".7"></path>
    </symbol>
    <symbol fill="" xmlns="http://www.w3.org/2000/svg" viewBox="0 0 58 42" id="panda">
        <path
            d="M53.75 31.534c2.344-4.44 4.25-9.885 4.25-15.687 0-2.915-.93-6.229-2.486-8.863C54.153 4.68 51.628 1.703 47.33.605c-5.44-1.388-10.95-.093-15.38.947-1.6.377-3.111.732-4.406.907-2.904.394-5.972.336-8.61.237l-1.206-.049c-1.666-.069-5.503-.135-5.503-.135-.21-.872-.687-1.586-1.283-1.916a1.643 1.643 0 0 0-.806-.204 1.65 1.65 0 0 0-.804.223c-.82.433-1.212 1.396-1.026 2.483-1.314.66-2.597 1.975-3.375 3.008-.668.888-1.235 2.289-1.783 3.644-.558 1.38-1.135 2.807-1.712 3.383-.141.14-.266.301-.372.48l-.006-.002a.76.76 0 0 0-.365.004.83.83 0 0 0-.333.176.997.997 0 0 0-.243.318 1.196 1.196 0 0 0-.074.83c.038.138.1.264.182.37a.907.907 0 0 0 .295.253c.112.06.234.09.357.092.104.379.245.743.42 1.085 1.161 2.335 3 3.786 4.621 5.067.894.706 1.739 1.372 2.393 2.117.49.578.917 1.226 1.27 1.928l.014.025c.664 1.297 1.19 2.88 1.289 4.39.124 1.91.418 7.064.51 8.693-.319.118-.619.3-.885.537-.199.175-.345.42-.417.698a1.59 1.59 0 0 0 .017.85c.079.28.232.523.436.695.205.172.452.263.704.261h5.431c.175 0 .348-.044.507-.13.158-.087.299-.212.411-.369 1.201-1.667 4.198-5.964 6.094-9.862 7.34-.009 12.353-.32 15.278-.95.435 3.214 1.01 6.877 1.22 8.197-.18.1-.352.221-.511.364a1.56 1.56 0 0 0-.456.772c-.08.307-.074.635.014.938.089.303.256.566.48.753.222.186.49.287.764.287h5.091c.301 0 .593-.121.827-.342 1.68-1.59 4.751-5.221 7.313-10.052a.616.616 0 0 0 .038-.072ZM17.873 16.257c-1.642 4.016-4.532 7.266-7.612 8.591a10.51 10.51 0 0 0-1.23-1.787c-.72-.82-1.601-1.515-2.534-2.252-1.605-1.268-3.265-2.578-4.308-4.675-.635-1.276-.398-1.77-.083-2.085.746-.744 1.343-2.221 1.976-3.785.517-1.28 1.052-2.603 1.624-3.363.693-.92 1.925-2.192 3.116-2.75a.87.87 0 0 0 .309-.247c.651 1.111 2.203.947 2.592-.065.027-.072.048-.148.06-.226 1.64.249 4.254.169 5.909.238l.863.035c1.207 3.956.969 8.333-.682 12.37Zm31.651 11.028c-.962-.208-5.734-1.05-9.737 1.688-.19-1.51-.32-2.767-.32-3.38a.656.656 0 0 0-.151-.426.481.481 0 0 0-.365-.176.481.481 0 0 0-.365.176.657.657 0 0 0-.15.426c0 .712.155 2.182.376 3.905-2.497.545-6.616.848-12.519.92 1.175-.833 2.112-2.029 2.797-3.584.953-2.164 1.374-4.984 1.218-8.155-.176-3.572-2.528-8.384-4.417-12.25-.438-.895-.857-1.752-1.206-2.511a34.44 34.44 0 0 0 2.977-.263c1.338-.18 2.87-.54 4.492-.923 4.334-1.018 9.727-2.286 14.955-.95 7.183 1.834 9.86 9.6 9.86 14.065 0 5.138-1.565 9.994-3.583 14.073-.593-1.034-1.828-2.193-3.862-2.635Z"
            fill=""></path>
        <path
            d="M6.893 9.194c-2.389-.924-3.778 1.67-2.258 3.194.832.833 1.622 2.763 3.429 2.603 2.87-.254 2.606-4.338-1.17-5.797Zm-1.082 2.51a.724.724 0 0 1-.703-.868.73.73 0 0 1 .197-.372.714.714 0 0 1 .78-.157c.131.055.243.148.322.267a.734.734 0 0 1-.09.918.712.712 0 0 1-.506.212ZM29.253 32.11a.152.152 0 0 0-.042-.08.104.104 0 0 0-.073-.03c-.565.007-3.558.046-4.827.052a.098.098 0 0 0-.056.018.128.128 0 0 0-.042.05c-.815 1.602-2.246 4.096-3.191 5.72a.17.17 0 0 0 .008.18l1.32 1.83-.014.027-.015.03c-.103.209-.16.448-.163.692a1.64 1.64 0 0 0 .143.7c.097.212.238.39.408.513.17.123.365.188.563.188h5.615a.933.933 0 0 0 .432-.108c.137-.072.26-.176.365-.308.103-.131.185-.287.239-.458.054-.17.08-.353.077-.537a74.717 74.717 0 0 0-.19-4.043 39.121 39.121 0 0 0-.557-4.435ZM56.468 28.089a.133.133 0 0 0-.04-.063.102.102 0 0 0-.129-.004.129.129 0 0 0-.043.06c-.153.432-.324.855-.513 1.267a51.86 51.86 0 0 1-5.714 9.623.145.145 0 0 0-.029.09c0 .033.012.064.031.088l.383.471a2.385 2.385 0 0 0-.28.512 1.521 1.521 0 0 0 .084 1.275c.093.178.224.325.38.429.155.103.33.16.509.163h5.816a.948.948 0 0 0 .418-.099c.132-.065.252-.16.352-.28.1-.12.18-.261.232-.417.053-.156.078-.322.075-.49-.058-2.692-.325-8.66-1.532-12.625Z"
            fill=""></path>
    </symbol>
    <symbol fill="" xmlns="http://www.w3.org/2000/svg" viewBox="0 0 108 60" id="pay">
        <path
            d="M46.973 25.033a1.18 1.18 0 0 1-.16-.061c-15.27-5.736-22.378 4.967-22.4 4.998-.15.219-.37.392-.642.48l-18.13 5.855a4.57 4.57 0 0 0-2.412 1.807 4.587 4.587 0 0 0-.742 2.927l1.175 14.759c.027.331.126.629.288.878.164.25.396.462.688.62.295.158.6.237.897.235.292-.002.595-.085.892-.25v.002L24.72 47.13c.193-.11.417-.17.655-.162.045.002 15.84.612 21.734 1.72 5.23.982 7.45-.943 7.456-.948l.001.002a1.24 1.24 0 0 1 .202-.137l17.68-9.63h-24.57v-.003c-.108 0-.218-.014-.328-.045a2.789 2.789 0 0 1-1.861-1.649 3.079 3.079 0 0 1-.226-1.382c.032-.477.18-.949.439-1.356.381-.6.983-1.045 1.796-1.169l15.882-4.964c.867-.27 1.408-1.01 1.572-1.819a2.61 2.61 0 0 0-.01-1.1 2.047 2.047 0 0 0-.45-.896c-.52-.592-1.493-.924-3.003-.654l-13.452 2.4v-.003c-.219.039-.45.019-.671-.07-.2-.08-.397-.157-.593-.232Zm-.873-2.922V5.864c0-1.614.658-3.08 1.718-4.142A5.825 5.825 0 0 1 51.951 0h50.198c1.611 0 3.073.66 4.133 1.722A5.853 5.853 0 0 1 108 5.864v26.248c0 1.614-.658 3.08-1.718 4.142a5.826 5.826 0 0 1-4.133 1.722h-24.54L56.046 49.718c-.58.438-3.66 2.477-9.392 1.4-5.239-.985-18.727-1.573-21.028-1.667L7.614 59.448l.001.002a4.306 4.306 0 0 1-2.07.55 4.3 4.3 0 0 1-2.075-.526 4.315 4.315 0 0 1-1.588-1.443 4.336 4.336 0 0 1-.684-2.04L.023 41.234a7.053 7.053 0 0 1 1.158-4.496 7.027 7.027 0 0 1 3.706-2.785l17.747-5.732c1.456-1.906 9.116-10.695 23.466-6.109Zm31.193 13.386h24.856c.927 0 1.772-.382 2.385-.996a3.38 3.38 0 0 0 .993-2.39V13.108H48.574v9.654l12.69-2.264c2.488-.444 4.235.264 5.282 1.459a4.529 4.529 0 0 1 1.001 1.98c.072.309.112.626.122.946h3.683a.62.62 0 0 1 0 1.24h-3.795a5.017 5.017 0 0 1-1.285 2.446.62.62 0 0 1-.48 1.01h-.968a4.706 4.706 0 0 1-.51.192l-15.975 4.993a1.254 1.254 0 0 1-.276.053c-.042.009-.07.027-.084.05a.42.42 0 0 0-.053.194.6.6 0 0 0 .043.27.374.374 0 0 0 .133.167h29.191Zm15.705-12.04c.915 0 1.777.23 2.53.637a5.362 5.362 0 0 1 2.526-.637c1.474 0 2.81.6 3.777 1.568a5.346 5.346 0 0 1 1.565 3.785 5.348 5.348 0 0 1-1.565 3.786 5.32 5.32 0 0 1-5.338 1.333 5.391 5.391 0 0 1-.965-.401 5.306 5.306 0 0 1-2.53.637 5.32 5.32 0 0 1-3.777-1.569 5.343 5.343 0 0 1-1.565-3.785c0-1.479.598-2.817 1.565-3.786a5.317 5.317 0 0 1 3.777-1.568Zm3.998 1.803a5.343 5.343 0 0 1 1.345 3.55 5.343 5.343 0 0 1-1.345 3.552c.329.097.683.15 1.058.15a3.696 3.696 0 0 0 3.693-3.701 3.694 3.694 0 0 0-1.082-2.618 3.676 3.676 0 0 0-2.611-1.084c-.375 0-.73.053-1.058.15Zm-1.386.933a3.678 3.678 0 0 0-2.612-1.084c-1.02 0-1.943.415-2.611 1.084a3.694 3.694 0 0 0-1.082 2.618 3.694 3.694 0 1 0 7.386 0 3.693 3.693 0 0 0-1.081-2.618Zm-27.006 3.385a.62.62 0 0 1 0-1.24h2.11a.619.619 0 0 1 0 1.24h-2.11Zm23.99-10.532a.62.62 0 0 1 0-1.24h7.959c.342 0 .618.278.618.62 0 .342-.276.62-.618.62h-7.959Zm-18.186 0a.62.62 0 0 1 0-1.24H85.9a.62.62 0 0 1 0 1.24H74.408Zm-23.43 0a.62.62 0 0 1 0-1.24h16.778a.619.619 0 0 1 0 1.24H50.98Zm54.549-7.592V6.69H48.574v4.764h56.953Zm-.103-6.416a3.397 3.397 0 0 0-.89-1.564 3.366 3.366 0 0 0-2.385-.995H51.951c-.927 0-1.772.381-2.384.995a3.4 3.4 0 0 0-.89 1.564h56.747Z"
            fill=""></path>
    </symbol>
    <symbol fill="" xmlns="http://www.w3.org/2000/svg" viewBox="0 0 32 59" id="penguin">
        <path fill-rule="evenodd" clip-rule="evenodd"
            d="M11.062 53.697v1.535l.722.952c.752.993-.471.742-1.775.778l-.987.026-.747.579c-1.325 1.024-1.95 1.526-1.568-.193l.194-.879-1.41.008c-1.426-.103-1.234-.337.115-.886l2.243-.915.275-1.122c-5.302-3.784-5.25-12.786-3.726-18.515l2.404-9.037C3.41 29.852 3.51 31.401 1.941 36.25c-.43 1.33-1.44 2.306-1.74.437-.618-3.819.194-8.526 2.255-11.644 2.502-3.788 7.394-10.806 7.525-12.386.19-2.308-.625-4.58-.625-7.285 0-7.163 13.286-7.163 13.286 0 0 2.704-.816 4.977-.625 7.285.13 1.58 5.023 8.598 7.525 12.386 2.061 3.118 2.873 7.825 2.255 11.644-.3 1.87-1.31.894-1.74-.437-1.569-4.849-1.468-6.398-4.86-10.222l2.404 9.037c1.524 5.729 1.576 14.73-3.726 18.515l.275 1.122 2.243.915c1.349.549 1.54.783.115.886l-1.41-.008.194.88c.382 1.718-.243 1.216-1.568.192l-.747-.58-.987-.025c-1.304-.036-2.527.215-1.775-.778l.722-.952v-1.535h-9.876Zm8.544-48.915a.906.906 0 1 1 0 1.812.906.906 0 0 1 0-1.812Zm-7.212 0a.906.906 0 1 1 0 1.812.906.906 0 0 1 0-1.812ZM16 10.422l1.996-2.885-.713-.814c.076-1.513 1.803-3.49 3.256-2.765 1.51.754 1.63 5.897-2.419 7.174 4.243 3.373 6.517 16.556 6.517 24.092 0 8.69-3.867 15.735-8.636 15.735-4.77 0-8.636-7.045-8.636-15.735 0-7.526 2.314-20.685 6.558-24.079C9.702 9.852 9.958 4.384 11.61 3.9c1.426-.418 2.984 1.405 3.058 2.866l-.665.771L16 10.421Z"
            fill=""></path>
    </symbol>
    <symbol fill="" xmlns="http://www.w3.org/2000/svg" viewBox="0 0 32 32" id="plus">
        <path
            d="M16 0c-1.657 0-3 1.337-3 2.987v9.96H3c-1.657 0-3 1.337-3 2.987a2.994 2.994 0 0 0 3 2.988h10v9.959a2.994 2.994 0 0 0 3 2.987c1.657 0 3-1.337 3-2.987v-9.96h10c1.657 0 3-1.337 3-2.987a2.994 2.994 0 0 0-3-2.988H19V2.987A2.994 2.994 0 0 0 16 0Z"
            fill=""></path>
    </symbol>
    <symbol fill="" xmlns="http://www.w3.org/2000/svg" viewBox="0 0 50 50" id="sloth">
        <path
            d="M31.935 9.383c-.777-.311-5.983-1.792-7.615.546 0 0-.622.545.39 1.87 0 0 .776-1.48 1.864-1.636.198-.029.473-.041.793-.045l.14-1.125.28 1.125c1.443.013 3.476.14 4.226-.033 0 0-.544.39-2.564.467l.077 2.027-.667-2.008c-.846.025-1.506.053-2.186.318l.134 2.547-.655-2.3c-.477.27-.988.673-1.599 1.287 0 0 .7 2.026 2.642 1.948 1.943-.078 6.061-3.351 6.683-5.222 0 0-1.166.546-1.943.234Z"
            fill=""></path>
        <path
            d="M26.81 2.272c-.788.283-5.665 2.634-5.343 5.469 0 0-.105.822 1.527 1.143 0 0-.397-1.626.315-2.465a6.57 6.57 0 0 1 .564-.56l-.638-.935.953.656c1.09-.95 2.696-2.205 3.144-2.833 0 0-.15.653-1.612 2.054l1.397 1.466-1.826-1.06c-.617.581-1.093 1.04-1.428 1.69l1.782 1.82-2.009-1.287c-.179.518-.295 1.16-.347 2.025 0 0 1.862 1.054 3.265-.296 1.404-1.35 2.326-6.538 1.556-8.351.001-.002-.511 1.181-1.3 1.464Z"
            fill=""></path>
        <path
            d="M49.806 20.762c-.077-2.182-2.564-4.52-3.652-5.767-1.087-1.247-3.263-1.793-5.205-1.793-1.943 0-2.953 1.637-2.953 1.637s2.798-.701 3.575-.468c.776.234 4.661 2.884 6.216 5.768 1.553 2.884-.156 4.91-.933 6.39-.777 1.481-4.04 1.871-6.76 1.637-2.72-.234-4.195-1.637-4.817-2.884-.622-1.246-.544-3.506-.544-3.506l-6.993 5.221c.622 1.09 3.108 2.026 4.972 2.182 1.865.156 4.352 1.247 5.051 1.715.7.468-.466 1.09-.466 1.09-2.409-1.402-7.848-3.039-8.936-3.039-1.087 0-6.216-6.235-7.614-8.26-1.399-2.027-.777-3.664-.777-5.067s1.942-5.455 1.942-5.455-.388-1.948-3.03.156c-2.14 1.706-4.281 5.41-5.265 10.237.984-.922 1.847-1.742 1.847-1.742l-2.024 2.721a28.165 28.165 0 0 0-.307 2.578c-.049.675-.07 1.306-.07 1.901l1.7-1.355L13.07 26.6c.056 2.273.443 3.963.935 5.334l1.303-2.055-.795 3.311c.412.914.84 1.694 1.184 2.456.609 1.353 2.046 3.023 3.33 4.368l2.03-1.719-.994 2.773c.557.553 1.01.983 1.228 1.202.777.78-.31 1.17-.31 1.17-3.575-1.403-8.004-10.053-8.004-10.053s-3.962.311-5.827-2.494c-1.865-2.805-.544-6.313.466-8.34 1.01-2.025 0-1.48 0-1.48s-1.865.312-2.409.546c-.544.233-3.807 4.13-4.274 4.598-.466.468-.543 1.247-.543 1.247l1.32-1.17s-.388 1.17-.932 2.183S0 31.517 0 31.517l1.166-1.637v4.988c-.39 2.338 0 3.117 0 3.117l.776-3.429v3.507c0 .857 2.02 4.832 3.963 8.105 1.942 3.273 14.607 3.663 17.25 3.351 2.61-.307 10.605-5.03 14.693-8.751l-3.737.568 5.285-2.186a27.318 27.318 0 0 0 1.997-2.734l-3.01 1.257a408.67 408.67 0 0 1 3.53-2.087c1.964-3.222 3.23-6.33 3.23-6.33s2.953-1.636 4.118-3.351c1.166-1.714.623-2.96.545-5.143Z"
            fill=""></path>
        <path
            d="M39.394 17.8a.7.7 0 1 0-.002-1.4.7.7 0 0 0 .002 1.4ZM44.834 23.256a.778.778 0 0 0 .777-.78.778.778 0 1 0-.777.78Z"
            fill=""></path>
        <path
            d="M39.395 27.152c1.01.078 4.817-.077 5.905-.623 1.087-.546 2.486-2.183 2.175-3.663-.31-1.48-1.165-4.599-3.108-5.845-1.942-1.247-3.418-1.871-4.195-1.871-.777 0-2.098-.078-2.72.701 0 0-.855.546-1.243 2.884-.389 2.338-.855 4.13-.155 5.611.699 1.482 2.33 2.729 3.34 2.806Zm.544-10.988c1.165 1.013 1.087 1.792.699 2.416-.389.623-.855 1.169-.855 1.169l-.544.156-.7-.468-.31.468.156 1.792s.777 1.793 1.865 1.949c1.087.156 1.865.156 1.865-.156 0-.313-.233-.936.31-1.403.544-.468 2.254-1.325 2.798-.858.544.468 1.166 2.961.622 3.507-.544.545-.466.467-.933 0-.466-.468-1.476-2.572-1.476-2.572s-.855 0-.855.701c0 .702.544 1.091-.233 1.403-.777.312-3.03-.156-3.419-.545-.389-.39-.932-1.17-1.01-1.949-.077-.779-.388-1.558-.155-2.026.233-.467.543-1.325.855-.935.31.39.621.935 1.01.545.388-.389.622-1.013.622-1.013s-1.632-.311-2.72-1.247c-.001.001 1.242-1.947 2.408-.934Zm1.865 6.079-.7.701s-1.243-.234-1.942-1.247c-.7-1.013.7-1.48.7-1.48 1.087.545 1.942 2.026 1.942 2.026Z"
            fill=""></path>
    </symbol>
    <symbol fill="" xmlns="http://www.w3.org/2000/svg" viewBox="0 0 16 14" id="twitter">
        <path fill-rule="evenodd" clip-rule="evenodd"
            d="M16 1.657a6.201 6.201 0 0 1-1.885.557A3.511 3.511 0 0 0 15.558.258c-.634.405-1.337.7-2.085.858C12.875.429 12.022 0 11.077 0 9.265 0 7.795 1.582 7.795 3.534c0 .277.029.547.085.806C5.152 4.192 2.733 2.785 1.114.647a3.727 3.727 0 0 0-.445 1.777c0 1.226.58 2.308 1.46 2.942a3.095 3.095 0 0 1-1.486-.443v.045c0 1.712 1.131 3.14 2.633 3.465a3.069 3.069 0 0 1-1.483.06c.418 1.405 1.63 2.427 3.067 2.455-1.124.948-2.539 1.513-4.077 1.513-.265 0-.526-.016-.783-.049A8.818 8.818 0 0 0 5.032 14c6.038 0 9.34-5.386 9.34-10.056 0-.153-.004-.306-.01-.457A6.973 6.973 0 0 0 16 1.657Z"
            fill=""></path>
    </symbol>
    <symbol fill="" xmlns="http://www.w3.org/2000/svg" viewBox="0 0 37 37" id="user-icon">
        <g clip-path="url(#a)">
            <path
                d="M37 18.5C37 8.304 28.696 0 18.5 0S0 8.304 0 18.5c0 6.126 3.001 11.593 7.647 14.964.082.083.164.124.246.165A18.198 18.198 0 0 0 18.5 37c3.947 0 7.606-1.233 10.607-3.371.082-.041.164-.123.246-.165C34 30.094 37 24.626 37 18.5ZM9.044 32.437v-.781c0-5.222 4.235-9.456 9.456-9.456 5.221 0 9.456 4.234 9.456 9.456v.78a16.708 16.708 0 0 1-9.456 2.92 16.708 16.708 0 0 1-9.456-2.92Zm4.523-16.815A4.948 4.948 0 0 1 18.5 10.69a4.948 4.948 0 0 1 4.933 4.933 4.948 4.948 0 0 1-4.933 4.934 4.948 4.948 0 0 1-4.933-4.934ZM29.6 31.162a11.102 11.102 0 0 0-7.523-10.03 6.532 6.532 0 0 0 3-5.51c0-3.618-2.96-6.578-6.577-6.578-3.618 0-6.578 2.96-6.578 6.578a6.532 6.532 0 0 0 3.001 5.51C10.69 22.57 7.606 26.516 7.4 31.161A16.733 16.733 0 0 1 1.644 18.5C1.644 9.209 9.21 1.644 18.5 1.644S35.356 9.21 35.356 18.5c0 5.057-2.22 9.579-5.756 12.662Z"
                fill=""></path>
        </g>
        <defs>
            <clipPath id="a">
                <path fill="" d="M0 0h37v37H0z"></path>
            </clipPath>
        </defs>
    </symbol>

    <symbol fill="" xmlns="http://www.w3.org/2000/svg" viewBox="0 0 10 20" id="dollar">
        <path
            d="M8.078 6.26a5.731 5.731 0 0 0-1.22-.883 3.1 3.1 0 0 0-1.326-.286c-.571 0-.987.13-1.272.364-.286.233-.442.623-.442 1.142 0 .364.156.702.468.935.311.26.675.494 1.143.728.467.234.96.467 1.48.727.52.26 1.013.545 1.48.91.468.363.832.778 1.143 1.298.312.52.468 1.143.468 1.87 0 1.117-.312 2.078-.91 2.883-.596.805-1.532 1.325-2.726 1.61V20h-2.26v-2.338a8.07 8.07 0 0 1-2.156-.571C1.195 16.779.545 16.39 0 15.896l1.506-2.312c.598.442 1.17.78 1.689 1.013.545.234 1.09.338 1.636.338.65 0 1.143-.13 1.429-.39.311-.26.467-.675.467-1.22 0-.416-.156-.754-.467-1.04a5.872 5.872 0 0 0-1.143-.805c-.468-.26-.961-.519-1.48-.779a8.86 8.86 0 0 1-1.481-.935 4.849 4.849 0 0 1-1.143-1.272C.701 8 .545 7.429.545 6.727c0-1.143.312-2.104.936-2.857.623-.753 1.506-1.247 2.597-1.454V0h2.26v2.364a5.228 5.228 0 0 1 1.974.675 7.012 7.012 0 0 1 1.532 1.247L8.078 6.26Z"
            fill=""></path>
    </symbol>
</svg>